%TF.GenerationSoftware,KiCad,Pcbnew,(5.99.0-9885-g7a8abcadd2)*%
%TF.CreationDate,2021-05-15T19:58:37-05:00*%
%TF.ProjectId,small as5047 encoder breakout,736d616c-6c20-4617-9335-30343720656e,rev?*%
%TF.SameCoordinates,Original*%
%TF.FileFunction,Copper,L2,Bot*%
%TF.FilePolarity,Positive*%
%FSLAX46Y46*%
G04 Gerber Fmt 4.6, Leading zero omitted, Abs format (unit mm)*
G04 Created by KiCad (PCBNEW (5.99.0-9885-g7a8abcadd2)) date 2021-05-15 19:58:37*
%MOMM*%
%LPD*%
G01*
G04 APERTURE LIST*
G04 Aperture macros list*
%AMRoundRect*
0 Rectangle with rounded corners*
0 $1 Rounding radius*
0 $2 $3 $4 $5 $6 $7 $8 $9 X,Y pos of 4 corners*
0 Add a 4 corners polygon primitive as box body*
4,1,4,$2,$3,$4,$5,$6,$7,$8,$9,$2,$3,0*
0 Add four circle primitives for the rounded corners*
1,1,$1+$1,$2,$3*
1,1,$1+$1,$4,$5*
1,1,$1+$1,$6,$7*
1,1,$1+$1,$8,$9*
0 Add four rect primitives between the rounded corners*
20,1,$1+$1,$2,$3,$4,$5,0*
20,1,$1+$1,$4,$5,$6,$7,0*
20,1,$1+$1,$6,$7,$8,$9,0*
20,1,$1+$1,$8,$9,$2,$3,0*%
G04 Aperture macros list end*
%TA.AperFunction,SMDPad,CuDef*%
%ADD10RoundRect,0.100000X-0.637500X-0.100000X0.637500X-0.100000X0.637500X0.100000X-0.637500X0.100000X0*%
%TD*%
%TA.AperFunction,ViaPad*%
%ADD11C,0.800000*%
%TD*%
%TA.AperFunction,Conductor*%
%ADD12C,0.250000*%
%TD*%
G04 APERTURE END LIST*
D10*
%TO.P,U1,1,~CS*%
%TO.N,/H3{slash}CS*%
X135637500Y-84950000D03*
%TO.P,U1,2,CLK*%
%TO.N,/H1{slash}SCK*%
X135637500Y-84300000D03*
%TO.P,U1,3,MISO*%
%TO.N,/H2{slash}MISO*%
X135637500Y-83650000D03*
%TO.P,U1,4,MOSI*%
%TO.N,+3V3*%
X135637500Y-83000000D03*
%TO.P,U1,5,TST*%
%TO.N,GND*%
X135637500Y-82350000D03*
%TO.P,U1,6,B*%
%TO.N,N/C*%
X135637500Y-81700000D03*
%TO.P,U1,7,A*%
X135637500Y-81050000D03*
%TO.P,U1,8,W/PWM*%
X141362500Y-81050000D03*
%TO.P,U1,9,V*%
X141362500Y-81700000D03*
%TO.P,U1,10,U*%
X141362500Y-82350000D03*
%TO.P,U1,11,VDD*%
%TO.N,+5V*%
X141362500Y-83000000D03*
%TO.P,U1,12,VDD3V3*%
%TO.N,+3V3*%
X141362500Y-83650000D03*
%TO.P,U1,13,GND*%
%TO.N,GND*%
X141362500Y-84300000D03*
%TO.P,U1,14,I/PWM*%
%TO.N,N/C*%
X141362500Y-84950000D03*
%TD*%
D11*
%TO.N,GND*%
X134250000Y-86250000D03*
X142875000Y-84250000D03*
%TO.N,+3V3*%
X138750000Y-83750000D03*
%TO.N,+5V*%
X138625000Y-82125000D03*
%TO.N,/Temp*%
X138000000Y-79375000D03*
X140750000Y-88750000D03*
%TO.N,/H3{slash}CS*%
X137125000Y-85500000D03*
%TO.N,/H2{slash}MISO*%
X137125000Y-83375000D03*
%TO.N,/H1{slash}SCK*%
X138750000Y-85500000D03*
%TD*%
D12*
%TO.N,GND*%
X142875000Y-85375000D02*
X141250000Y-87000000D01*
X134250000Y-86250000D02*
X135000000Y-87000000D01*
X135000000Y-87000000D02*
X141250000Y-87000000D01*
X142875000Y-85375000D02*
X142875000Y-84250000D01*
X142825000Y-84300000D02*
X141362500Y-84300000D01*
X136388590Y-82350000D02*
X137125000Y-81613590D01*
X135637500Y-82350000D02*
X136388590Y-82350000D01*
X142875000Y-84250000D02*
X142825000Y-84300000D01*
%TO.N,+3V3*%
X136875000Y-82500000D02*
X137125000Y-82500000D01*
X136375000Y-83000000D02*
X136875000Y-82500000D01*
X137625000Y-82500000D02*
X137125000Y-82500000D01*
X141362500Y-83650000D02*
X138850000Y-83650000D01*
X135637500Y-83000000D02*
X136375000Y-83000000D01*
X138850000Y-83650000D02*
X138750000Y-83750000D01*
X138750000Y-83625000D02*
X137625000Y-82500000D01*
X138750000Y-83750000D02*
X138750000Y-83625000D01*
%TO.N,+5V*%
X141362500Y-83000000D02*
X139500000Y-83000000D01*
X139500000Y-83000000D02*
X138625000Y-82125000D01*
%TO.N,/Temp*%
X138000000Y-79375000D02*
X137375000Y-79375000D01*
X139625000Y-87625000D02*
X134250000Y-87625000D01*
X134375000Y-84625000D02*
X134375000Y-80750000D01*
X140750000Y-88750000D02*
X139625000Y-87625000D01*
X133375000Y-85625000D02*
X134375000Y-84625000D01*
X133375000Y-86750000D02*
X133375000Y-85625000D01*
X135750000Y-79375000D02*
X137375000Y-79375000D01*
X134250000Y-87625000D02*
X133375000Y-86750000D01*
X134375000Y-80750000D02*
X135750000Y-79375000D01*
%TO.N,/H3{slash}CS*%
X137125000Y-85500000D02*
X136575000Y-84950000D01*
X136575000Y-84950000D02*
X135637500Y-84950000D01*
%TO.N,/H2{slash}MISO*%
X135637500Y-83650000D02*
X136850000Y-83650000D01*
X136850000Y-83650000D02*
X137125000Y-83375000D01*
%TO.N,/H1{slash}SCK*%
X135637500Y-84300000D02*
X137550000Y-84300000D01*
X137550000Y-84300000D02*
X138125000Y-84875000D01*
X138750000Y-85500000D02*
X138125000Y-84875000D01*
%TD*%
%TA.AperFunction,Conductor*%
%TO.N,GND*%
G36*
X139009896Y-71815355D02*
G01*
X139062837Y-71816487D01*
X139070192Y-71816860D01*
X139122988Y-71821085D01*
X139126654Y-71821432D01*
X139671085Y-71881056D01*
X140307746Y-71950782D01*
X140311341Y-71951229D01*
X140363795Y-71958532D01*
X140371036Y-71959756D01*
X140422979Y-71970112D01*
X140426562Y-71970881D01*
X141584485Y-72237144D01*
X141588063Y-72238022D01*
X141639275Y-72251386D01*
X141646344Y-72253453D01*
X141696724Y-72269798D01*
X141700187Y-72270978D01*
X142210191Y-72453084D01*
X142819098Y-72670505D01*
X142822550Y-72671794D01*
X142871890Y-72691056D01*
X142878669Y-72693934D01*
X142926754Y-72716025D01*
X142930078Y-72717611D01*
X143994798Y-73244984D01*
X143998041Y-73246650D01*
X144044773Y-73271524D01*
X144051169Y-73275172D01*
X144096362Y-73302730D01*
X144099475Y-73304691D01*
X144234922Y-73392819D01*
X145095400Y-73952689D01*
X145098457Y-73954743D01*
X145141943Y-73984882D01*
X145147874Y-73989255D01*
X145189554Y-74021908D01*
X145192418Y-74024220D01*
X145320115Y-74130424D01*
X146105914Y-74783965D01*
X146108694Y-74786347D01*
X146148377Y-74821365D01*
X146153752Y-74826394D01*
X146191342Y-74863689D01*
X146193913Y-74866315D01*
X146232471Y-74906876D01*
X147012529Y-75727452D01*
X147015027Y-75730158D01*
X147050359Y-75769571D01*
X147055112Y-75775196D01*
X147088079Y-75816603D01*
X147090332Y-75819519D01*
X147802884Y-76770274D01*
X147805034Y-76773232D01*
X147825696Y-76802549D01*
X147835542Y-76816520D01*
X147839607Y-76822662D01*
X147867511Y-76867624D01*
X147869407Y-76870780D01*
X148466178Y-77898195D01*
X148467982Y-77901408D01*
X148493225Y-77947949D01*
X148496545Y-77954523D01*
X148519020Y-78002447D01*
X148520535Y-78005805D01*
X148993339Y-79095782D01*
X148994755Y-79099180D01*
X149014400Y-79148356D01*
X149016932Y-79155275D01*
X149033661Y-79205491D01*
X149034774Y-79209002D01*
X149377187Y-80346715D01*
X149378197Y-80350258D01*
X149391967Y-80401381D01*
X149393674Y-80408545D01*
X149404429Y-80460362D01*
X149405121Y-80463961D01*
X149568809Y-81387576D01*
X149612468Y-81633923D01*
X149613057Y-81637558D01*
X149620763Y-81689897D01*
X149621623Y-81697212D01*
X149626261Y-81749954D01*
X149626529Y-81753617D01*
X149675145Y-82584140D01*
X149696572Y-82950191D01*
X149696718Y-82953377D01*
X149698237Y-82999177D01*
X149698287Y-83005554D01*
X149697487Y-83051374D01*
X149697391Y-83054544D01*
X149661284Y-83898443D01*
X149661128Y-83902097D01*
X149660952Y-83905265D01*
X149659953Y-83919910D01*
X149657834Y-83950987D01*
X149657240Y-83957332D01*
X149651812Y-84002855D01*
X149651394Y-84006017D01*
X149479402Y-85192226D01*
X149478820Y-85195862D01*
X149469699Y-85247991D01*
X149468222Y-85255190D01*
X149462483Y-85279515D01*
X149456062Y-85306730D01*
X149455164Y-85310301D01*
X149148656Y-86458213D01*
X149147654Y-86461758D01*
X149132511Y-86512473D01*
X149130198Y-86519467D01*
X149112106Y-86569241D01*
X149110797Y-86572683D01*
X148672463Y-87676974D01*
X148671055Y-87680377D01*
X148650085Y-87729011D01*
X148646972Y-87735687D01*
X148623198Y-87783006D01*
X148621512Y-87786244D01*
X148057300Y-88831912D01*
X148055550Y-88835045D01*
X148029038Y-88880921D01*
X148025166Y-88887189D01*
X147996037Y-88931406D01*
X147993967Y-88934451D01*
X147311643Y-89907102D01*
X147309485Y-89910084D01*
X147277830Y-89952515D01*
X147273253Y-89958290D01*
X147239155Y-89998818D01*
X147236743Y-90001601D01*
X146445600Y-90888000D01*
X146443109Y-90890710D01*
X146406738Y-90929139D01*
X146401518Y-90934341D01*
X146362924Y-90970614D01*
X146360207Y-90973094D01*
X145471023Y-91761164D01*
X145468260Y-91763542D01*
X145427619Y-91797491D01*
X145421833Y-91802044D01*
X145379294Y-91833550D01*
X145376302Y-91835699D01*
X144970409Y-92118328D01*
X144401233Y-92514652D01*
X144398232Y-92516677D01*
X144360856Y-92541112D01*
X144353911Y-92545653D01*
X144347633Y-92549501D01*
X144301676Y-92575847D01*
X144298480Y-92577617D01*
X143250877Y-93138160D01*
X143247619Y-93139843D01*
X143200230Y-93163444D01*
X143193557Y-93166528D01*
X143144852Y-93187328D01*
X143141445Y-93188724D01*
X142035567Y-93623226D01*
X142032199Y-93624492D01*
X141985779Y-93641182D01*
X141982358Y-93642412D01*
X141975358Y-93644700D01*
X141924587Y-93659667D01*
X141921039Y-93660657D01*
X140772000Y-93963174D01*
X140768529Y-93964034D01*
X140716872Y-93976031D01*
X140709726Y-93977472D01*
X140657466Y-93986428D01*
X140653875Y-93986989D01*
X140272038Y-94040993D01*
X139477454Y-94153372D01*
X139473830Y-94153831D01*
X139421180Y-94159713D01*
X139413847Y-94160316D01*
X139371286Y-94162565D01*
X139361006Y-94163108D01*
X139357326Y-94163249D01*
X139279520Y-94165083D01*
X138169473Y-94191242D01*
X138165850Y-94191275D01*
X138112882Y-94190974D01*
X138105527Y-94190717D01*
X138052670Y-94187322D01*
X138049047Y-94187036D01*
X136866059Y-94076253D01*
X136862439Y-94075861D01*
X136809870Y-94069383D01*
X136802607Y-94068272D01*
X136765535Y-94061484D01*
X136750540Y-94058739D01*
X136746927Y-94058023D01*
X135584932Y-93809972D01*
X135581343Y-93809150D01*
X135529940Y-93796596D01*
X135522838Y-93794640D01*
X135472236Y-93779097D01*
X135468731Y-93777964D01*
X134343657Y-93396053D01*
X134340203Y-93394825D01*
X134290544Y-93376332D01*
X134283778Y-93373584D01*
X134235287Y-93352222D01*
X134231967Y-93350701D01*
X133159138Y-92840137D01*
X133155836Y-92838506D01*
X133108705Y-92814362D01*
X133102248Y-92810812D01*
X133056625Y-92783964D01*
X133053480Y-92782051D01*
X132047554Y-92149812D01*
X132044462Y-92147805D01*
X132000473Y-92118328D01*
X131994479Y-92114053D01*
X131952325Y-92082086D01*
X131949422Y-92079817D01*
X131466998Y-91691246D01*
X131024067Y-91334484D01*
X131021257Y-91332150D01*
X130981021Y-91297754D01*
X130975590Y-91292831D01*
X130937403Y-91256115D01*
X130934810Y-91253548D01*
X130102759Y-90405366D01*
X130100218Y-90402699D01*
X130064264Y-90363838D01*
X130059423Y-90358288D01*
X130049264Y-90345931D01*
X130025785Y-90317373D01*
X130023533Y-90314551D01*
X129523764Y-89669091D01*
X129296125Y-89375091D01*
X129293913Y-89372147D01*
X129262736Y-89329354D01*
X129258575Y-89323276D01*
X129229940Y-89278716D01*
X129227994Y-89275588D01*
X129202033Y-89232466D01*
X128615196Y-88257732D01*
X128613342Y-88254550D01*
X128587351Y-88208375D01*
X128583960Y-88201916D01*
X128560699Y-88154277D01*
X128559164Y-88151014D01*
X128508100Y-88038181D01*
X128158563Y-87265840D01*
X128069265Y-87068526D01*
X128067796Y-87065148D01*
X128047402Y-87016334D01*
X128044763Y-87009458D01*
X128027240Y-86959491D01*
X128026071Y-86955997D01*
X127665824Y-85823784D01*
X127664759Y-85820259D01*
X127650193Y-85769378D01*
X127648374Y-85762240D01*
X127636808Y-85710604D01*
X127636055Y-85706998D01*
X127614083Y-85593431D01*
X132949500Y-85593431D01*
X132949500Y-86781569D01*
X132949700Y-86782831D01*
X132949800Y-86785382D01*
X132949800Y-86817345D01*
X132952866Y-86826780D01*
X132957205Y-86840136D01*
X132961819Y-86859356D01*
X132964018Y-86873236D01*
X132965570Y-86883032D01*
X132970071Y-86891865D01*
X132976451Y-86904387D01*
X132984013Y-86922642D01*
X132991421Y-86945443D01*
X132997251Y-86953467D01*
X133005507Y-86964830D01*
X133015840Y-86981692D01*
X133026718Y-87003042D01*
X133049319Y-87025643D01*
X133051051Y-87027516D01*
X133051803Y-87028551D01*
X133971449Y-87948197D01*
X133972484Y-87948949D01*
X133974357Y-87950681D01*
X133996958Y-87973282D01*
X134017737Y-87983869D01*
X134018308Y-87984160D01*
X134035170Y-87994493D01*
X134054557Y-88008579D01*
X134077358Y-88015987D01*
X134095612Y-88023548D01*
X134116968Y-88034430D01*
X134126761Y-88035981D01*
X134126764Y-88035982D01*
X134140644Y-88038181D01*
X134159865Y-88042795D01*
X134182655Y-88050200D01*
X134214618Y-88050200D01*
X134217169Y-88050300D01*
X134218431Y-88050500D01*
X139396562Y-88050500D01*
X139464683Y-88070502D01*
X139485657Y-88087405D01*
X140011808Y-88613556D01*
X140045834Y-88675868D01*
X140047635Y-88719096D01*
X140044539Y-88742612D01*
X140063140Y-88911102D01*
X140121395Y-89070290D01*
X140125631Y-89076593D01*
X140125631Y-89076594D01*
X140134557Y-89089877D01*
X140215940Y-89210988D01*
X140341317Y-89325073D01*
X140490288Y-89405957D01*
X140654253Y-89448973D01*
X140742481Y-89450359D01*
X140816147Y-89451516D01*
X140816150Y-89451516D01*
X140823745Y-89451635D01*
X140882841Y-89438100D01*
X140981577Y-89415487D01*
X140981581Y-89415486D01*
X140988980Y-89413791D01*
X141140418Y-89337626D01*
X141269316Y-89227536D01*
X141368234Y-89089877D01*
X141431461Y-88932597D01*
X141455345Y-88764775D01*
X141455500Y-88750000D01*
X141435135Y-88581715D01*
X141375217Y-88423145D01*
X141370918Y-88416890D01*
X141370916Y-88416886D01*
X141283505Y-88289703D01*
X141283504Y-88289701D01*
X141279203Y-88283444D01*
X141152638Y-88170679D01*
X141002829Y-88091359D01*
X140838423Y-88050063D01*
X140830825Y-88050023D01*
X140830823Y-88050023D01*
X140702633Y-88049352D01*
X140634618Y-88028994D01*
X140614198Y-88012449D01*
X139906269Y-87304520D01*
X139906256Y-87304508D01*
X139903551Y-87301803D01*
X139902519Y-87301053D01*
X139900638Y-87299314D01*
X139878042Y-87276718D01*
X139856692Y-87265840D01*
X139839830Y-87255507D01*
X139828467Y-87247251D01*
X139820443Y-87241421D01*
X139797642Y-87234013D01*
X139779387Y-87226451D01*
X139758032Y-87215570D01*
X139748239Y-87214019D01*
X139748236Y-87214018D01*
X139734356Y-87211819D01*
X139715136Y-87207205D01*
X139712793Y-87206444D01*
X139692345Y-87199800D01*
X139660382Y-87199800D01*
X139657831Y-87199700D01*
X139656569Y-87199500D01*
X134478438Y-87199500D01*
X134410317Y-87179498D01*
X134389343Y-87162595D01*
X133837405Y-86610657D01*
X133803379Y-86548345D01*
X133800500Y-86521562D01*
X133800500Y-85853438D01*
X133820502Y-85785317D01*
X133837405Y-85764343D01*
X134428292Y-85173456D01*
X134490604Y-85139430D01*
X134561419Y-85144495D01*
X134618255Y-85187042D01*
X134629654Y-85205348D01*
X134671944Y-85288347D01*
X134761653Y-85378056D01*
X134874694Y-85435653D01*
X134968432Y-85450500D01*
X136302035Y-85450500D01*
X136370156Y-85470502D01*
X136416649Y-85524158D01*
X136427274Y-85562672D01*
X136438140Y-85661102D01*
X136470923Y-85750686D01*
X136489427Y-85801248D01*
X136496395Y-85820290D01*
X136500631Y-85826593D01*
X136500631Y-85826594D01*
X136509557Y-85839877D01*
X136590940Y-85960988D01*
X136716317Y-86075073D01*
X136865288Y-86155957D01*
X137029253Y-86198973D01*
X137117481Y-86200359D01*
X137191147Y-86201516D01*
X137191150Y-86201516D01*
X137198745Y-86201635D01*
X137257841Y-86188100D01*
X137356577Y-86165487D01*
X137356581Y-86165486D01*
X137363980Y-86163791D01*
X137515418Y-86087626D01*
X137644316Y-85977536D01*
X137743234Y-85839877D01*
X137748574Y-85826594D01*
X137803626Y-85689650D01*
X137803627Y-85689648D01*
X137806461Y-85682597D01*
X137811813Y-85644991D01*
X137841214Y-85580368D01*
X137900885Y-85541899D01*
X137971881Y-85541797D01*
X138031662Y-85580095D01*
X138061795Y-85648919D01*
X138062306Y-85653552D01*
X138062307Y-85653556D01*
X138063140Y-85661102D01*
X138095923Y-85750686D01*
X138114427Y-85801248D01*
X138121395Y-85820290D01*
X138125631Y-85826593D01*
X138125631Y-85826594D01*
X138134557Y-85839877D01*
X138215940Y-85960988D01*
X138341317Y-86075073D01*
X138490288Y-86155957D01*
X138654253Y-86198973D01*
X138742481Y-86200359D01*
X138816147Y-86201516D01*
X138816150Y-86201516D01*
X138823745Y-86201635D01*
X138882841Y-86188100D01*
X138981577Y-86165487D01*
X138981581Y-86165486D01*
X138988980Y-86163791D01*
X139140418Y-86087626D01*
X139269316Y-85977536D01*
X139368234Y-85839877D01*
X139373574Y-85826594D01*
X139428626Y-85689650D01*
X139428627Y-85689648D01*
X139431461Y-85682597D01*
X139444151Y-85593431D01*
X139454764Y-85518859D01*
X139454764Y-85518856D01*
X139455345Y-85514775D01*
X139455500Y-85500000D01*
X139435135Y-85331715D01*
X139432450Y-85324609D01*
X139377902Y-85180250D01*
X139377901Y-85180248D01*
X139375217Y-85173145D01*
X139370918Y-85166890D01*
X139370916Y-85166886D01*
X139283505Y-85039703D01*
X139283504Y-85039701D01*
X139279203Y-85033444D01*
X139152638Y-84920679D01*
X139115598Y-84901067D01*
X139035922Y-84858881D01*
X139002829Y-84841359D01*
X138911553Y-84818432D01*
X140324500Y-84818432D01*
X140324500Y-85081568D01*
X140339347Y-85175306D01*
X140396944Y-85288347D01*
X140486653Y-85378056D01*
X140599694Y-85435653D01*
X140693432Y-85450500D01*
X142031568Y-85450500D01*
X142125306Y-85435653D01*
X142238347Y-85378056D01*
X142328056Y-85288347D01*
X142385653Y-85175306D01*
X142400500Y-85081568D01*
X142400500Y-84818432D01*
X142385653Y-84724694D01*
X142381151Y-84715858D01*
X142363726Y-84681658D01*
X142350622Y-84611881D01*
X142363726Y-84567253D01*
X142380677Y-84533986D01*
X142386729Y-84515358D01*
X142394247Y-84467894D01*
X142392479Y-84454211D01*
X142378507Y-84450000D01*
X142037922Y-84450000D01*
X142033671Y-84449833D01*
X142031568Y-84449500D01*
X140693432Y-84449500D01*
X140691329Y-84449833D01*
X140687078Y-84450000D01*
X140346034Y-84450000D01*
X140332798Y-84453886D01*
X140330825Y-84468345D01*
X140338271Y-84515358D01*
X140344323Y-84533986D01*
X140361274Y-84567253D01*
X140374378Y-84637030D01*
X140361274Y-84681658D01*
X140343849Y-84715858D01*
X140339347Y-84724694D01*
X140324500Y-84818432D01*
X138911553Y-84818432D01*
X138838423Y-84800063D01*
X138830825Y-84800023D01*
X138830823Y-84800023D01*
X138702632Y-84799352D01*
X138634617Y-84778994D01*
X138614197Y-84762449D01*
X138504048Y-84652300D01*
X138470022Y-84589988D01*
X138475087Y-84519173D01*
X138517634Y-84462337D01*
X138584154Y-84437526D01*
X138625118Y-84441330D01*
X138646899Y-84447044D01*
X138646901Y-84447044D01*
X138654253Y-84448973D01*
X138742481Y-84450359D01*
X138816147Y-84451516D01*
X138816150Y-84451516D01*
X138823745Y-84451635D01*
X138885348Y-84437526D01*
X138981577Y-84415487D01*
X138981581Y-84415486D01*
X138988980Y-84413791D01*
X139140418Y-84337626D01*
X139269316Y-84227536D01*
X139273745Y-84221373D01*
X139273750Y-84221367D01*
X139340860Y-84127974D01*
X139396854Y-84084326D01*
X139443182Y-84075500D01*
X140213242Y-84075500D01*
X140281363Y-84095502D01*
X140309634Y-84120355D01*
X140330543Y-84145192D01*
X140346493Y-84150000D01*
X140687078Y-84150000D01*
X140691329Y-84150167D01*
X140693432Y-84150500D01*
X142031568Y-84150500D01*
X142033671Y-84150167D01*
X142037922Y-84150000D01*
X142378966Y-84150000D01*
X142392202Y-84146114D01*
X142394175Y-84131655D01*
X142386729Y-84084642D01*
X142380675Y-84066011D01*
X142363726Y-84032745D01*
X142350622Y-83962968D01*
X142363726Y-83918340D01*
X142367414Y-83911102D01*
X142385653Y-83875306D01*
X142400500Y-83781568D01*
X142400500Y-83518432D01*
X142385653Y-83424694D01*
X142364002Y-83382201D01*
X142350899Y-83312424D01*
X142364002Y-83267799D01*
X142385653Y-83225306D01*
X142400500Y-83131568D01*
X142400500Y-83086439D01*
X144596462Y-83086439D01*
X144596997Y-83090957D01*
X144596997Y-83090963D01*
X144614177Y-83236116D01*
X144628878Y-83360321D01*
X144700491Y-83626655D01*
X144809801Y-83879862D01*
X144812192Y-83883741D01*
X144930394Y-84075500D01*
X144954518Y-84114637D01*
X145131610Y-84326062D01*
X145337368Y-84509708D01*
X145567482Y-84661728D01*
X145681978Y-84715484D01*
X145812995Y-84776997D01*
X145813000Y-84776999D01*
X145817130Y-84778938D01*
X146081083Y-84858881D01*
X146353812Y-84899884D01*
X146358377Y-84899904D01*
X146358378Y-84899904D01*
X146491707Y-84900485D01*
X146629603Y-84901087D01*
X146658922Y-84896940D01*
X146898163Y-84863105D01*
X146898167Y-84863104D01*
X146902679Y-84862466D01*
X147167320Y-84784829D01*
X147216090Y-84762449D01*
X147413825Y-84671710D01*
X147413829Y-84671708D01*
X147417982Y-84669802D01*
X147649413Y-84519796D01*
X147856766Y-84337953D01*
X147864311Y-84329104D01*
X147932597Y-84249009D01*
X148035696Y-84128081D01*
X148038119Y-84124225D01*
X148038124Y-84124219D01*
X148180028Y-83898443D01*
X148180029Y-83898441D01*
X148182457Y-83894578D01*
X148196114Y-83863687D01*
X148292128Y-83646507D01*
X148292130Y-83646502D01*
X148293972Y-83642335D01*
X148354534Y-83424694D01*
X148366683Y-83381036D01*
X148366684Y-83381031D01*
X148367907Y-83376636D01*
X148402712Y-83103047D01*
X148403162Y-83086439D01*
X148405415Y-83003137D01*
X148405500Y-83000000D01*
X148385541Y-82724929D01*
X148343541Y-82534690D01*
X148327069Y-82460081D01*
X148327068Y-82460077D01*
X148326084Y-82455621D01*
X148228372Y-82197716D01*
X148114865Y-81993364D01*
X148096672Y-81960611D01*
X148096671Y-81960610D01*
X148094454Y-81956618D01*
X147995239Y-81826615D01*
X147929902Y-81741002D01*
X147929898Y-81740998D01*
X147927135Y-81737377D01*
X147901308Y-81712129D01*
X147788526Y-81601878D01*
X147729920Y-81544587D01*
X147622446Y-81466359D01*
X147510631Y-81384971D01*
X147510628Y-81384969D01*
X147506939Y-81382284D01*
X147336441Y-81292581D01*
X147266905Y-81255996D01*
X147266899Y-81255993D01*
X147262865Y-81253871D01*
X147258560Y-81252351D01*
X147258556Y-81252349D01*
X147007123Y-81163559D01*
X147007122Y-81163559D01*
X147002810Y-81162036D01*
X146872044Y-81136262D01*
X146736694Y-81109584D01*
X146736688Y-81109583D01*
X146732222Y-81108703D01*
X146727669Y-81108476D01*
X146727666Y-81108476D01*
X146461338Y-81095217D01*
X146461332Y-81095217D01*
X146456769Y-81094990D01*
X146182222Y-81121185D01*
X145914332Y-81186737D01*
X145910106Y-81188449D01*
X145910102Y-81188450D01*
X145662944Y-81288559D01*
X145662939Y-81288562D01*
X145658711Y-81290274D01*
X145654776Y-81292578D01*
X145654770Y-81292581D01*
X145428509Y-81425063D01*
X145420713Y-81429628D01*
X145205325Y-81601878D01*
X145017058Y-81803416D01*
X144859856Y-82030022D01*
X144829734Y-82090570D01*
X144744424Y-82262050D01*
X144737013Y-82276946D01*
X144651101Y-82539018D01*
X144643267Y-82584140D01*
X144610182Y-82774694D01*
X144603922Y-82810746D01*
X144602361Y-82868432D01*
X144597743Y-83039113D01*
X144596462Y-83086439D01*
X142400500Y-83086439D01*
X142400500Y-82868432D01*
X142385653Y-82774694D01*
X142364002Y-82732201D01*
X142350899Y-82662424D01*
X142364002Y-82617799D01*
X142385653Y-82575306D01*
X142400500Y-82481568D01*
X142400500Y-82218432D01*
X142385653Y-82124694D01*
X142364002Y-82082201D01*
X142350899Y-82012424D01*
X142364002Y-81967799D01*
X142367664Y-81960611D01*
X142385653Y-81925306D01*
X142400500Y-81831568D01*
X142400500Y-81568432D01*
X142385653Y-81474694D01*
X142364002Y-81432201D01*
X142350899Y-81362424D01*
X142364002Y-81317799D01*
X142385653Y-81275306D01*
X142400500Y-81181568D01*
X142400500Y-80918432D01*
X142385653Y-80824694D01*
X142328056Y-80711653D01*
X142238347Y-80621944D01*
X142125306Y-80564347D01*
X142031568Y-80549500D01*
X140693432Y-80549500D01*
X140599694Y-80564347D01*
X140486653Y-80621944D01*
X140396944Y-80711653D01*
X140339347Y-80824694D01*
X140324500Y-80918432D01*
X140324500Y-81181568D01*
X140339347Y-81275306D01*
X140360998Y-81317799D01*
X140374101Y-81387576D01*
X140360998Y-81432201D01*
X140339347Y-81474694D01*
X140324500Y-81568432D01*
X140324500Y-81831568D01*
X140339347Y-81925306D01*
X140357336Y-81960611D01*
X140360998Y-81967799D01*
X140374101Y-82037576D01*
X140360998Y-82082201D01*
X140339347Y-82124694D01*
X140324500Y-82218432D01*
X140324500Y-82448500D01*
X140304498Y-82516621D01*
X140250842Y-82563114D01*
X140198500Y-82574500D01*
X139728438Y-82574500D01*
X139660317Y-82554498D01*
X139639343Y-82537595D01*
X139363798Y-82262050D01*
X139329772Y-82199738D01*
X139328149Y-82155206D01*
X139329764Y-82143855D01*
X139330345Y-82139775D01*
X139330500Y-82125000D01*
X139319006Y-82030022D01*
X139311048Y-81964258D01*
X139311048Y-81964257D01*
X139310135Y-81956715D01*
X139307427Y-81949549D01*
X139252902Y-81805250D01*
X139252901Y-81805248D01*
X139250217Y-81798145D01*
X139245918Y-81791890D01*
X139245916Y-81791886D01*
X139158505Y-81664703D01*
X139158504Y-81664701D01*
X139154203Y-81658444D01*
X139137057Y-81643167D01*
X139094464Y-81605219D01*
X139027638Y-81545679D01*
X138877829Y-81466359D01*
X138713423Y-81425063D01*
X138705825Y-81425023D01*
X138705823Y-81425023D01*
X138632792Y-81424641D01*
X138543912Y-81424176D01*
X138536533Y-81425948D01*
X138536529Y-81425948D01*
X138386461Y-81461976D01*
X138386457Y-81461977D01*
X138379082Y-81463748D01*
X138228450Y-81541495D01*
X138222728Y-81546487D01*
X138222726Y-81546488D01*
X138162500Y-81599026D01*
X138100711Y-81652928D01*
X138003240Y-81791615D01*
X137941665Y-81949549D01*
X137939263Y-81967799D01*
X137935897Y-81993364D01*
X137907175Y-82058291D01*
X137847911Y-82097384D01*
X137772038Y-82096752D01*
X137766868Y-82095072D01*
X137758032Y-82090570D01*
X137748239Y-82089019D01*
X137748233Y-82089017D01*
X137734356Y-82086819D01*
X137715136Y-82082205D01*
X137712793Y-82081444D01*
X137692345Y-82074800D01*
X137660382Y-82074800D01*
X137657831Y-82074700D01*
X137656569Y-82074500D01*
X136843431Y-82074500D01*
X136842169Y-82074700D01*
X136839618Y-82074800D01*
X136807655Y-82074800D01*
X136800800Y-82077027D01*
X136731881Y-82068120D01*
X136677567Y-82022398D01*
X136656595Y-81954569D01*
X136661008Y-81925362D01*
X136660653Y-81925306D01*
X136662204Y-81915512D01*
X136675500Y-81831568D01*
X136675500Y-81568432D01*
X136660653Y-81474694D01*
X136639002Y-81432201D01*
X136625899Y-81362424D01*
X136639002Y-81317799D01*
X136660653Y-81275306D01*
X136675500Y-81181568D01*
X136675500Y-80918432D01*
X136660653Y-80824694D01*
X136603056Y-80711653D01*
X136513347Y-80621944D01*
X136400306Y-80564347D01*
X136306568Y-80549500D01*
X135481438Y-80549500D01*
X135413317Y-80529498D01*
X135366824Y-80475842D01*
X135356720Y-80405568D01*
X135386214Y-80340988D01*
X135392343Y-80334405D01*
X135889343Y-79837405D01*
X135951655Y-79803379D01*
X135978438Y-79800500D01*
X137378826Y-79800500D01*
X137446947Y-79820502D01*
X137465429Y-79836549D01*
X137465940Y-79835988D01*
X137591317Y-79950073D01*
X137740288Y-80030957D01*
X137904253Y-80073973D01*
X137992481Y-80075359D01*
X138066147Y-80076516D01*
X138066150Y-80076516D01*
X138073745Y-80076635D01*
X138132841Y-80063100D01*
X138231577Y-80040487D01*
X138231581Y-80040486D01*
X138238980Y-80038791D01*
X138390418Y-79962626D01*
X138519316Y-79852536D01*
X138618234Y-79714877D01*
X138681461Y-79557597D01*
X138705345Y-79389775D01*
X138705500Y-79375000D01*
X138685135Y-79206715D01*
X138656500Y-79130934D01*
X138627902Y-79055250D01*
X138627901Y-79055248D01*
X138625217Y-79048145D01*
X138620918Y-79041890D01*
X138620916Y-79041886D01*
X138533505Y-78914703D01*
X138533504Y-78914701D01*
X138529203Y-78908444D01*
X138402638Y-78795679D01*
X138252829Y-78716359D01*
X138088423Y-78675063D01*
X138080825Y-78675023D01*
X138080823Y-78675023D01*
X138007792Y-78674641D01*
X137918912Y-78674176D01*
X137911533Y-78675948D01*
X137911529Y-78675948D01*
X137761461Y-78711976D01*
X137761457Y-78711977D01*
X137754082Y-78713748D01*
X137603450Y-78791495D01*
X137475711Y-78902928D01*
X137472078Y-78908097D01*
X137412098Y-78945050D01*
X137378907Y-78949500D01*
X135718431Y-78949500D01*
X135717173Y-78949699D01*
X135714632Y-78949799D01*
X135682655Y-78949799D01*
X135673226Y-78952863D01*
X135673219Y-78952864D01*
X135659857Y-78957206D01*
X135640629Y-78961823D01*
X135637887Y-78962257D01*
X135626765Y-78964018D01*
X135626762Y-78964019D01*
X135616968Y-78965570D01*
X135608133Y-78970072D01*
X135608129Y-78970073D01*
X135595616Y-78976449D01*
X135577353Y-78984013D01*
X135563990Y-78988355D01*
X135563985Y-78988358D01*
X135554557Y-78991421D01*
X135546540Y-78997246D01*
X135546536Y-78997248D01*
X135535170Y-79005507D01*
X135518308Y-79015840D01*
X135496958Y-79026718D01*
X135474357Y-79049319D01*
X135472484Y-79051051D01*
X135471449Y-79051803D01*
X134051803Y-80471449D01*
X134051051Y-80472484D01*
X134049319Y-80474357D01*
X134026718Y-80496958D01*
X134022217Y-80505793D01*
X134015840Y-80518308D01*
X134005507Y-80535170D01*
X133991421Y-80554557D01*
X133984013Y-80577358D01*
X133976452Y-80595612D01*
X133965570Y-80616968D01*
X133964019Y-80626761D01*
X133964018Y-80626764D01*
X133961819Y-80640644D01*
X133957205Y-80659864D01*
X133949800Y-80682655D01*
X133949800Y-80714618D01*
X133949700Y-80717169D01*
X133949500Y-80718431D01*
X133949500Y-84396562D01*
X133929498Y-84464683D01*
X133912595Y-84485657D01*
X133051803Y-85346449D01*
X133051051Y-85347484D01*
X133049319Y-85349357D01*
X133026718Y-85371958D01*
X133016131Y-85392737D01*
X133015840Y-85393308D01*
X133005507Y-85410170D01*
X132991421Y-85429557D01*
X132984013Y-85452358D01*
X132976452Y-85470612D01*
X132965570Y-85491968D01*
X132964019Y-85501761D01*
X132964018Y-85501764D01*
X132961819Y-85515644D01*
X132957205Y-85534864D01*
X132949800Y-85557655D01*
X132949800Y-85589618D01*
X132949700Y-85592169D01*
X132949500Y-85593431D01*
X127614083Y-85593431D01*
X127611503Y-85580095D01*
X127536810Y-85194040D01*
X127410364Y-84540485D01*
X127409717Y-84536858D01*
X127401185Y-84484611D01*
X127400211Y-84477312D01*
X127396476Y-84441330D01*
X127394745Y-84424651D01*
X127394420Y-84420999D01*
X127394011Y-84415487D01*
X127306370Y-83236116D01*
X127306151Y-83232445D01*
X127303772Y-83179558D01*
X127303657Y-83172191D01*
X127304373Y-83119298D01*
X127304476Y-83115617D01*
X127305724Y-83086439D01*
X128596462Y-83086439D01*
X128596997Y-83090957D01*
X128596997Y-83090963D01*
X128614177Y-83236116D01*
X128628878Y-83360321D01*
X128700491Y-83626655D01*
X128809801Y-83879862D01*
X128812192Y-83883741D01*
X128930394Y-84075500D01*
X128954518Y-84114637D01*
X129131610Y-84326062D01*
X129337368Y-84509708D01*
X129567482Y-84661728D01*
X129681978Y-84715484D01*
X129812995Y-84776997D01*
X129813000Y-84776999D01*
X129817130Y-84778938D01*
X130081083Y-84858881D01*
X130353812Y-84899884D01*
X130358377Y-84899904D01*
X130358378Y-84899904D01*
X130491707Y-84900485D01*
X130629603Y-84901087D01*
X130658922Y-84896940D01*
X130898163Y-84863105D01*
X130898167Y-84863104D01*
X130902679Y-84862466D01*
X131167320Y-84784829D01*
X131216090Y-84762449D01*
X131413825Y-84671710D01*
X131413829Y-84671708D01*
X131417982Y-84669802D01*
X131649413Y-84519796D01*
X131856766Y-84337953D01*
X131864311Y-84329104D01*
X131932597Y-84249009D01*
X132035696Y-84128081D01*
X132038119Y-84124225D01*
X132038124Y-84124219D01*
X132180028Y-83898443D01*
X132180029Y-83898441D01*
X132182457Y-83894578D01*
X132196114Y-83863687D01*
X132292128Y-83646507D01*
X132292130Y-83646502D01*
X132293972Y-83642335D01*
X132354534Y-83424694D01*
X132366683Y-83381036D01*
X132366684Y-83381031D01*
X132367907Y-83376636D01*
X132402712Y-83103047D01*
X132403162Y-83086439D01*
X132405415Y-83003137D01*
X132405500Y-83000000D01*
X132385541Y-82724929D01*
X132343541Y-82534690D01*
X132327069Y-82460081D01*
X132327068Y-82460077D01*
X132326084Y-82455621D01*
X132228372Y-82197716D01*
X132114865Y-81993364D01*
X132096672Y-81960611D01*
X132096671Y-81960610D01*
X132094454Y-81956618D01*
X131995239Y-81826615D01*
X131929902Y-81741002D01*
X131929898Y-81740998D01*
X131927135Y-81737377D01*
X131901308Y-81712129D01*
X131788526Y-81601878D01*
X131729920Y-81544587D01*
X131622446Y-81466359D01*
X131510631Y-81384971D01*
X131510628Y-81384969D01*
X131506939Y-81382284D01*
X131336441Y-81292581D01*
X131266905Y-81255996D01*
X131266899Y-81255993D01*
X131262865Y-81253871D01*
X131258560Y-81252351D01*
X131258556Y-81252349D01*
X131007123Y-81163559D01*
X131007122Y-81163559D01*
X131002810Y-81162036D01*
X130872044Y-81136262D01*
X130736694Y-81109584D01*
X130736688Y-81109583D01*
X130732222Y-81108703D01*
X130727669Y-81108476D01*
X130727666Y-81108476D01*
X130461338Y-81095217D01*
X130461332Y-81095217D01*
X130456769Y-81094990D01*
X130182222Y-81121185D01*
X129914332Y-81186737D01*
X129910106Y-81188449D01*
X129910102Y-81188450D01*
X129662944Y-81288559D01*
X129662939Y-81288562D01*
X129658711Y-81290274D01*
X129654776Y-81292578D01*
X129654770Y-81292581D01*
X129428509Y-81425063D01*
X129420713Y-81429628D01*
X129205325Y-81601878D01*
X129017058Y-81803416D01*
X128859856Y-82030022D01*
X128829734Y-82090570D01*
X128744424Y-82262050D01*
X128737013Y-82276946D01*
X128651101Y-82539018D01*
X128643267Y-82584140D01*
X128610182Y-82774694D01*
X128603922Y-82810746D01*
X128602361Y-82868432D01*
X128597743Y-83039113D01*
X128596462Y-83086439D01*
X127305724Y-83086439D01*
X127355266Y-81928552D01*
X127355477Y-81924875D01*
X127359286Y-81872059D01*
X127360031Y-81864732D01*
X127366912Y-81812283D01*
X127367444Y-81808636D01*
X127367990Y-81805250D01*
X127524351Y-80834486D01*
X127556389Y-80635577D01*
X127557028Y-80631952D01*
X127566964Y-80579985D01*
X127568559Y-80572791D01*
X127581533Y-80521425D01*
X127582487Y-80517868D01*
X127906974Y-79374967D01*
X127908031Y-79371440D01*
X127923977Y-79320940D01*
X127926393Y-79314000D01*
X127945276Y-79264487D01*
X127946614Y-79261126D01*
X127966076Y-79214258D01*
X128402276Y-78163768D01*
X128403730Y-78160409D01*
X128425450Y-78112139D01*
X128428666Y-78105516D01*
X128453156Y-78058621D01*
X128454908Y-78055381D01*
X129035460Y-77018728D01*
X129037308Y-77015539D01*
X129064519Y-76970119D01*
X129068487Y-76963915D01*
X129098283Y-76920195D01*
X129100401Y-76917182D01*
X129797961Y-75955310D01*
X129800139Y-75952397D01*
X129832474Y-75910448D01*
X129837126Y-75904765D01*
X129871836Y-75864800D01*
X129874292Y-75862054D01*
X130679267Y-74988182D01*
X130681802Y-74985509D01*
X130718798Y-74947631D01*
X130724096Y-74942515D01*
X130763228Y-74906876D01*
X130765988Y-74904435D01*
X130811938Y-74864982D01*
X131667449Y-74130423D01*
X131670242Y-74128096D01*
X131711432Y-74094770D01*
X131717264Y-74090328D01*
X131760310Y-74059483D01*
X131763333Y-74057383D01*
X132748906Y-73393857D01*
X132751989Y-73391846D01*
X132796765Y-73363566D01*
X132803095Y-73359822D01*
X132849478Y-73334191D01*
X132852652Y-73332498D01*
X133908932Y-72788479D01*
X133912229Y-72786841D01*
X133959993Y-72763981D01*
X133966730Y-72760996D01*
X134015722Y-72740978D01*
X134019151Y-72739635D01*
X135131684Y-72322569D01*
X135135149Y-72321327D01*
X135159518Y-72312995D01*
X135185245Y-72304199D01*
X135192278Y-72302022D01*
X135243270Y-72287857D01*
X135246824Y-72286925D01*
X135541514Y-72214269D01*
X136400450Y-72002500D01*
X136404038Y-72001671D01*
X136416542Y-71998973D01*
X136455787Y-71990506D01*
X136463006Y-71989168D01*
X136515327Y-71981045D01*
X136518949Y-71980537D01*
X137697876Y-71832649D01*
X137701496Y-71832248D01*
X137754221Y-71827194D01*
X137761555Y-71826707D01*
X137777459Y-71826117D01*
X137814451Y-71824745D01*
X137818132Y-71824662D01*
X138385143Y-71820208D01*
X139006273Y-71815330D01*
X139009896Y-71815355D01*
G37*
%TD.AperFunction*%
%TD*%
M02*
