%TF.GenerationSoftware,KiCad,Pcbnew,(5.99.0-9885-g7a8abcadd2)*%
%TF.CreationDate,2021-05-15T19:58:37-05:00*%
%TF.ProjectId,small as5047 encoder breakout,736d616c-6c20-4617-9335-30343720656e,rev?*%
%TF.SameCoordinates,Original*%
%TF.FileFunction,Copper,L1,Top*%
%TF.FilePolarity,Positive*%
%FSLAX46Y46*%
G04 Gerber Fmt 4.6, Leading zero omitted, Abs format (unit mm)*
G04 Created by KiCad (PCBNEW (5.99.0-9885-g7a8abcadd2)) date 2021-05-15 19:58:37*
%MOMM*%
%LPD*%
G01*
G04 APERTURE LIST*
G04 Aperture macros list*
%AMRoundRect*
0 Rectangle with rounded corners*
0 $1 Rounding radius*
0 $2 $3 $4 $5 $6 $7 $8 $9 X,Y pos of 4 corners*
0 Add a 4 corners polygon primitive as box body*
4,1,4,$2,$3,$4,$5,$6,$7,$8,$9,$2,$3,0*
0 Add four circle primitives for the rounded corners*
1,1,$1+$1,$2,$3*
1,1,$1+$1,$4,$5*
1,1,$1+$1,$6,$7*
1,1,$1+$1,$8,$9*
0 Add four rect primitives between the rounded corners*
20,1,$1+$1,$2,$3,$4,$5,0*
20,1,$1+$1,$4,$5,$6,$7,0*
20,1,$1+$1,$6,$7,$8,$9,0*
20,1,$1+$1,$8,$9,$2,$3,0*%
G04 Aperture macros list end*
%TA.AperFunction,SMDPad,CuDef*%
%ADD10RoundRect,0.150000X0.300000X-0.150000X0.300000X0.150000X-0.300000X0.150000X-0.300000X-0.150000X0*%
%TD*%
%TA.AperFunction,SMDPad,CuDef*%
%ADD11RoundRect,0.150000X-0.150000X-0.300000X0.150000X-0.300000X0.150000X0.300000X-0.150000X0.300000X0*%
%TD*%
%TA.AperFunction,SMDPad,CuDef*%
%ADD12RoundRect,0.150000X-0.150000X-0.700000X0.150000X-0.700000X0.150000X0.700000X-0.150000X0.700000X0*%
%TD*%
%TA.AperFunction,SMDPad,CuDef*%
%ADD13RoundRect,0.250000X-0.250000X-1.150000X0.250000X-1.150000X0.250000X1.150000X-0.250000X1.150000X0*%
%TD*%
%TA.AperFunction,SMDPad,CuDef*%
%ADD14RoundRect,0.150000X-0.300000X0.150000X-0.300000X-0.150000X0.300000X-0.150000X0.300000X0.150000X0*%
%TD*%
%TA.AperFunction,SMDPad,CuDef*%
%ADD15R,0.600000X0.450000*%
%TD*%
%TA.AperFunction,SMDPad,CuDef*%
%ADD16RoundRect,0.150000X0.150000X0.700000X-0.150000X0.700000X-0.150000X-0.700000X0.150000X-0.700000X0*%
%TD*%
%TA.AperFunction,SMDPad,CuDef*%
%ADD17RoundRect,0.250000X0.250000X1.100000X-0.250000X1.100000X-0.250000X-1.100000X0.250000X-1.100000X0*%
%TD*%
%TA.AperFunction,SMDPad,CuDef*%
%ADD18RoundRect,0.250000X-0.250000X-1.100000X0.250000X-1.100000X0.250000X1.100000X-0.250000X1.100000X0*%
%TD*%
%TA.AperFunction,ViaPad*%
%ADD19C,0.800000*%
%TD*%
%TA.AperFunction,Conductor*%
%ADD20C,0.250000*%
%TD*%
G04 APERTURE END LIST*
D10*
%TO.P,R1,1*%
%TO.N,+5V*%
X137500000Y-82000000D03*
%TO.P,R1,2*%
%TO.N,N/C*%
X137500000Y-80500000D03*
%TD*%
D11*
%TO.P,C1,1*%
%TO.N,+5V*%
X139750000Y-82000000D03*
%TO.P,C1,2*%
%TO.N,GND*%
X141250000Y-82000000D03*
%TD*%
%TO.P,C2,1*%
%TO.N,+3V3*%
X139750000Y-84500000D03*
%TO.P,C2,2*%
%TO.N,GND*%
X141250000Y-84500000D03*
%TD*%
D12*
%TO.P,J2,1,Pin_1*%
%TO.N,GND*%
X135375000Y-91950000D03*
%TO.P,J2,2,Pin_2*%
%TO.N,/H3{slash}CS*%
X136625000Y-91950000D03*
%TO.P,J2,3,Pin_3*%
%TO.N,/H2{slash}MISO*%
X137875000Y-91950000D03*
%TO.P,J2,4,Pin_4*%
%TO.N,/H1{slash}SCK*%
X139125000Y-91950000D03*
%TO.P,J2,5,Pin_5*%
%TO.N,/Temp*%
X140375000Y-91950000D03*
%TO.P,J2,6,Pin_6*%
%TO.N,+5V*%
X141625000Y-91950000D03*
D13*
%TO.P,J2,MP*%
%TO.N,N/C*%
X143475000Y-88600000D03*
X133525000Y-88600000D03*
%TD*%
D14*
%TO.P,D1,A*%
%TO.N,N/C*%
X135500000Y-81758430D03*
%TO.P,D1,C*%
X135500000Y-83258430D03*
%TD*%
D15*
%TO.P,D2,1,K*%
%TO.N,+5V*%
X139325000Y-80000000D03*
%TO.P,D2,2,A*%
%TO.N,GND*%
X141425000Y-80000000D03*
%TD*%
D16*
%TO.P,J1,1,Pin_1*%
%TO.N,/Temp*%
X139125000Y-77600000D03*
%TO.P,J1,2,Pin_2*%
%TO.N,GND*%
X137875000Y-77600000D03*
D17*
%TO.P,J1,MP*%
%TO.N,N/C*%
X140975000Y-74400000D03*
X136025000Y-74400000D03*
%TD*%
D12*
%TO.P,J3,1,Pin_1*%
%TO.N,GND*%
X135375000Y-87050000D03*
%TO.P,J3,2,Pin_2*%
%TO.N,/H3{slash}CS*%
X136625000Y-87050000D03*
%TO.P,J3,3,Pin_3*%
%TO.N,/H2{slash}MISO*%
X137875000Y-87050000D03*
%TO.P,J3,4,Pin_4*%
%TO.N,/H1{slash}SCK*%
X139125000Y-87050000D03*
%TO.P,J3,5,Pin_5*%
%TO.N,/Temp*%
X140375000Y-87050000D03*
%TO.P,J3,6,Pin_6*%
%TO.N,+5V*%
X141625000Y-87050000D03*
D18*
%TO.P,J3,MP*%
%TO.N,N/C*%
X133525000Y-90250000D03*
X143475000Y-90250000D03*
%TD*%
D19*
%TO.N,GND*%
X134250000Y-86250000D03*
X142875000Y-84250000D03*
%TO.N,+3V3*%
X138750000Y-83750000D03*
%TO.N,+5V*%
X138625000Y-82125000D03*
%TO.N,/Temp*%
X138000000Y-79375000D03*
X140750000Y-88750000D03*
%TO.N,/H3{slash}CS*%
X137125000Y-85500000D03*
%TO.N,/H2{slash}MISO*%
X137125000Y-83375000D03*
%TO.N,/H1{slash}SCK*%
X138750000Y-85500000D03*
%TD*%
D20*
%TO.N,GND*%
X137875000Y-77600000D02*
X136900000Y-77600000D01*
X135500000Y-83295930D02*
X135454070Y-83250000D01*
X141425000Y-80000000D02*
X141250000Y-80175000D01*
X141250000Y-80175000D02*
X141250000Y-82000000D01*
X141287500Y-84500000D02*
X141287500Y-82000000D01*
X134250000Y-81225000D02*
X134250000Y-83750000D01*
X134250000Y-83250000D02*
X134250000Y-83750000D01*
X134250000Y-86250000D02*
X134250000Y-83750000D01*
X142875000Y-84250000D02*
X142625000Y-84500000D01*
X134575000Y-87050000D02*
X134250000Y-86725000D01*
X134250000Y-86725000D02*
X134250000Y-86250000D01*
X134250000Y-80250000D02*
X134250000Y-81225000D01*
X135454070Y-83250000D02*
X134250000Y-83250000D01*
X142625000Y-84500000D02*
X141287500Y-84500000D01*
X135375000Y-87050000D02*
X134575000Y-87050000D01*
X136900000Y-77600000D02*
X134250000Y-80250000D01*
X135375000Y-91950000D02*
X135375000Y-87050000D01*
%TO.N,+3V3*%
X139500000Y-84500000D02*
X139712500Y-84500000D01*
X138750000Y-83750000D02*
X139500000Y-84500000D01*
%TO.N,+5V*%
X140500000Y-85375000D02*
X141625000Y-86500000D01*
X137587500Y-82125000D02*
X137500000Y-82037500D01*
X141625000Y-91950000D02*
X141625000Y-87050000D01*
X139750000Y-80750000D02*
X139750000Y-80425000D01*
X139587500Y-82125000D02*
X139712500Y-82000000D01*
X141625000Y-86500000D02*
X141625000Y-87050000D01*
X139712500Y-82000000D02*
X140500000Y-82787500D01*
X140500000Y-82787500D02*
X140500000Y-85375000D01*
X139750000Y-82000000D02*
X139750000Y-80750000D01*
X138625000Y-82125000D02*
X137587500Y-82125000D01*
X139750000Y-80425000D02*
X139325000Y-80000000D01*
X138625000Y-82125000D02*
X139587500Y-82125000D01*
%TO.N,/Temp*%
X139125000Y-77600000D02*
X139125000Y-78250000D01*
X139125000Y-78250000D02*
X138000000Y-79375000D01*
X140375000Y-87050000D02*
X140375000Y-88375000D01*
X140375000Y-91950000D02*
X140375000Y-87050000D01*
X140375000Y-88375000D02*
X140750000Y-88750000D01*
%TO.N,/H3{slash}CS*%
X136625000Y-86000000D02*
X137125000Y-85500000D01*
X136625000Y-87050000D02*
X136625000Y-86000000D01*
X136625000Y-91950000D02*
X136625000Y-87050000D01*
%TO.N,/H2{slash}MISO*%
X137875000Y-91950000D02*
X137875000Y-87050000D01*
X137875000Y-84125000D02*
X137875000Y-84500000D01*
X137875000Y-84500000D02*
X137875000Y-87050000D01*
X137125000Y-83375000D02*
X137875000Y-84125000D01*
%TO.N,/H1{slash}SCK*%
X139125000Y-85875000D02*
X138750000Y-85500000D01*
X139125000Y-91950000D02*
X139125000Y-87050000D01*
X139125000Y-87050000D02*
X139125000Y-85875000D01*
%TO.N,Net-(D1-Pad2)*%
X136037500Y-80462500D02*
X135500000Y-81000000D01*
X135500000Y-81000000D02*
X135500000Y-81720930D01*
X137500000Y-80462500D02*
X136037500Y-80462500D01*
%TD*%
%TA.AperFunction,Conductor*%
%TO.N,GND*%
G36*
X139009896Y-71815355D02*
G01*
X139062837Y-71816487D01*
X139070192Y-71816860D01*
X139122988Y-71821085D01*
X139126654Y-71821432D01*
X139671085Y-71881056D01*
X140307746Y-71950782D01*
X140311341Y-71951229D01*
X140363795Y-71958532D01*
X140371036Y-71959756D01*
X140422979Y-71970112D01*
X140426562Y-71970881D01*
X141584485Y-72237144D01*
X141588063Y-72238022D01*
X141639275Y-72251386D01*
X141646344Y-72253453D01*
X141696724Y-72269798D01*
X141700187Y-72270978D01*
X142210191Y-72453084D01*
X142819098Y-72670505D01*
X142822550Y-72671794D01*
X142871890Y-72691056D01*
X142878669Y-72693934D01*
X142926754Y-72716025D01*
X142930078Y-72717611D01*
X143994798Y-73244984D01*
X143998041Y-73246650D01*
X144044773Y-73271524D01*
X144051169Y-73275172D01*
X144096362Y-73302730D01*
X144099475Y-73304691D01*
X144234922Y-73392819D01*
X145095400Y-73952689D01*
X145098457Y-73954743D01*
X145141943Y-73984882D01*
X145147874Y-73989255D01*
X145189554Y-74021908D01*
X145192418Y-74024220D01*
X145320115Y-74130424D01*
X146105914Y-74783965D01*
X146108694Y-74786347D01*
X146148377Y-74821365D01*
X146153752Y-74826394D01*
X146191342Y-74863689D01*
X146193913Y-74866315D01*
X146844639Y-75550841D01*
X147012529Y-75727452D01*
X147015027Y-75730158D01*
X147050359Y-75769571D01*
X147055112Y-75775196D01*
X147088079Y-75816603D01*
X147090330Y-75819517D01*
X147703043Y-76637056D01*
X147802884Y-76770274D01*
X147805034Y-76773232D01*
X147825696Y-76802549D01*
X147835542Y-76816520D01*
X147839607Y-76822662D01*
X147867511Y-76867624D01*
X147869407Y-76870780D01*
X148466178Y-77898195D01*
X148467982Y-77901408D01*
X148493225Y-77947949D01*
X148496545Y-77954523D01*
X148519020Y-78002447D01*
X148520535Y-78005805D01*
X148993339Y-79095782D01*
X148994755Y-79099180D01*
X149014400Y-79148356D01*
X149016932Y-79155275D01*
X149033661Y-79205491D01*
X149034774Y-79209002D01*
X149377187Y-80346715D01*
X149378197Y-80350258D01*
X149391967Y-80401381D01*
X149393674Y-80408545D01*
X149403714Y-80456915D01*
X149404429Y-80460362D01*
X149405121Y-80463961D01*
X149570922Y-81399500D01*
X149612468Y-81633923D01*
X149613057Y-81637558D01*
X149620763Y-81689897D01*
X149621623Y-81697212D01*
X149626261Y-81749954D01*
X149626529Y-81753617D01*
X149693954Y-82905465D01*
X149696572Y-82950191D01*
X149696718Y-82953377D01*
X149698237Y-82999177D01*
X149698287Y-83005554D01*
X149697488Y-83051335D01*
X149697487Y-83051374D01*
X149697391Y-83054544D01*
X149663279Y-83851822D01*
X149661128Y-83902097D01*
X149660951Y-83905284D01*
X149657834Y-83950987D01*
X149657240Y-83957332D01*
X149651812Y-84002855D01*
X149651394Y-84006017D01*
X149479402Y-85192226D01*
X149478820Y-85195862D01*
X149469699Y-85247991D01*
X149468222Y-85255190D01*
X149456552Y-85304653D01*
X149456062Y-85306730D01*
X149455164Y-85310301D01*
X149148656Y-86458213D01*
X149147654Y-86461758D01*
X149132511Y-86512473D01*
X149130198Y-86519467D01*
X149112106Y-86569241D01*
X149110797Y-86572683D01*
X148672463Y-87676974D01*
X148671055Y-87680377D01*
X148650085Y-87729011D01*
X148646972Y-87735687D01*
X148623198Y-87783006D01*
X148621512Y-87786244D01*
X148057300Y-88831912D01*
X148055550Y-88835045D01*
X148029038Y-88880921D01*
X148025166Y-88887189D01*
X147996037Y-88931406D01*
X147993967Y-88934451D01*
X147311643Y-89907102D01*
X147309485Y-89910084D01*
X147277830Y-89952515D01*
X147273253Y-89958290D01*
X147239155Y-89998818D01*
X147236743Y-90001601D01*
X146445600Y-90888000D01*
X146443109Y-90890710D01*
X146406738Y-90929139D01*
X146401518Y-90934341D01*
X146362924Y-90970614D01*
X146360207Y-90973094D01*
X145471023Y-91761164D01*
X145468260Y-91763542D01*
X145427619Y-91797491D01*
X145421833Y-91802044D01*
X145379294Y-91833550D01*
X145376302Y-91835699D01*
X144970714Y-92118115D01*
X144401233Y-92514652D01*
X144398232Y-92516677D01*
X144360856Y-92541112D01*
X144353911Y-92545653D01*
X144347633Y-92549501D01*
X144301676Y-92575847D01*
X144298480Y-92577617D01*
X143250877Y-93138160D01*
X143247619Y-93139843D01*
X143200230Y-93163444D01*
X143193557Y-93166528D01*
X143144852Y-93187328D01*
X143141445Y-93188724D01*
X142035567Y-93623226D01*
X142032199Y-93624492D01*
X141985779Y-93641182D01*
X141982358Y-93642412D01*
X141975358Y-93644700D01*
X141924587Y-93659667D01*
X141921039Y-93660657D01*
X140772000Y-93963174D01*
X140768529Y-93964034D01*
X140716872Y-93976031D01*
X140709726Y-93977472D01*
X140657466Y-93986428D01*
X140653875Y-93986989D01*
X140272038Y-94040993D01*
X139477454Y-94153372D01*
X139473830Y-94153831D01*
X139421180Y-94159713D01*
X139413847Y-94160316D01*
X139371286Y-94162565D01*
X139361006Y-94163108D01*
X139357326Y-94163249D01*
X139279520Y-94165083D01*
X138169473Y-94191242D01*
X138165850Y-94191275D01*
X138112882Y-94190974D01*
X138105527Y-94190717D01*
X138052670Y-94187322D01*
X138049047Y-94187036D01*
X136866059Y-94076253D01*
X136862439Y-94075861D01*
X136809870Y-94069383D01*
X136802607Y-94068272D01*
X136765535Y-94061484D01*
X136750540Y-94058739D01*
X136746927Y-94058023D01*
X135584932Y-93809972D01*
X135581343Y-93809150D01*
X135529940Y-93796596D01*
X135522838Y-93794640D01*
X135472236Y-93779097D01*
X135468731Y-93777964D01*
X134343657Y-93396053D01*
X134340203Y-93394825D01*
X134290544Y-93376332D01*
X134283778Y-93373584D01*
X134235287Y-93352222D01*
X134231967Y-93350701D01*
X133159138Y-92840137D01*
X133155836Y-92838506D01*
X133108705Y-92814362D01*
X133102248Y-92810812D01*
X133056625Y-92783964D01*
X133053480Y-92782051D01*
X132047554Y-92149812D01*
X132044462Y-92147805D01*
X132000473Y-92118328D01*
X131994479Y-92114053D01*
X131993813Y-92113548D01*
X134775000Y-92113548D01*
X134775000Y-92678550D01*
X134775699Y-92687909D01*
X134788714Y-92774477D01*
X134794191Y-92792278D01*
X134844600Y-92897255D01*
X134855074Y-92912667D01*
X134934120Y-92998178D01*
X134948661Y-93009828D01*
X135049357Y-93068316D01*
X135066680Y-93075175D01*
X135166785Y-93098378D01*
X135180965Y-93100000D01*
X135206885Y-93100000D01*
X135222124Y-93095525D01*
X135223329Y-93094135D01*
X135225000Y-93086452D01*
X135225000Y-92118115D01*
X135220525Y-92102876D01*
X135219135Y-92101671D01*
X135211452Y-92100000D01*
X134793115Y-92100000D01*
X134777876Y-92104475D01*
X134776671Y-92105865D01*
X134775000Y-92113548D01*
X131993813Y-92113548D01*
X131952325Y-92082086D01*
X131949422Y-92079817D01*
X131218227Y-91490871D01*
X131024067Y-91334484D01*
X131021257Y-91332150D01*
X130981021Y-91297754D01*
X130975590Y-91292831D01*
X130937403Y-91256115D01*
X130934810Y-91253548D01*
X130102759Y-90405366D01*
X130100218Y-90402699D01*
X130064264Y-90363838D01*
X130059423Y-90358288D01*
X130049264Y-90345931D01*
X130025785Y-90317373D01*
X130023533Y-90314551D01*
X129327403Y-89415487D01*
X129296125Y-89375091D01*
X129293913Y-89372147D01*
X129262736Y-89329354D01*
X129258575Y-89323276D01*
X129229940Y-89278716D01*
X129227994Y-89275588D01*
X128615196Y-88257732D01*
X128613342Y-88254550D01*
X128587351Y-88208375D01*
X128583960Y-88201916D01*
X128560699Y-88154277D01*
X128559164Y-88151014D01*
X128523100Y-88071325D01*
X128220378Y-87402428D01*
X132724500Y-87402428D01*
X132724500Y-91386501D01*
X132725082Y-91390747D01*
X132725082Y-91390753D01*
X132726464Y-91400841D01*
X132739963Y-91499385D01*
X132799845Y-91637764D01*
X132805253Y-91644442D01*
X132875626Y-91731345D01*
X132894734Y-91754942D01*
X132901736Y-91759918D01*
X132901738Y-91759920D01*
X132993533Y-91825155D01*
X133017639Y-91842286D01*
X133159505Y-91893361D01*
X133227428Y-91900500D01*
X133811501Y-91900500D01*
X133815747Y-91899918D01*
X133815753Y-91899918D01*
X133882408Y-91890787D01*
X133924385Y-91885037D01*
X133932270Y-91881625D01*
X134054880Y-91828567D01*
X134054882Y-91828566D01*
X134062764Y-91825155D01*
X134141786Y-91761164D01*
X134173264Y-91735674D01*
X134173265Y-91735673D01*
X134179942Y-91730266D01*
X134184918Y-91723264D01*
X134184920Y-91723262D01*
X134262310Y-91614363D01*
X134267286Y-91607361D01*
X134318361Y-91465495D01*
X134325500Y-91397572D01*
X134325500Y-91205965D01*
X134775000Y-91205965D01*
X134775000Y-91781885D01*
X134779475Y-91797124D01*
X134780865Y-91798329D01*
X134788548Y-91800000D01*
X135206885Y-91800000D01*
X135222124Y-91795525D01*
X135223329Y-91794135D01*
X135225000Y-91786452D01*
X135225000Y-90818115D01*
X135220525Y-90802876D01*
X135219135Y-90801671D01*
X135211452Y-90800000D01*
X135196450Y-90800000D01*
X135187091Y-90800699D01*
X135100523Y-90813714D01*
X135082722Y-90819191D01*
X134977745Y-90869600D01*
X134962333Y-90880074D01*
X134876822Y-90959120D01*
X134865172Y-90973661D01*
X134806684Y-91074357D01*
X134799825Y-91091680D01*
X134776622Y-91191785D01*
X134775000Y-91205965D01*
X134325500Y-91205965D01*
X134325500Y-87413499D01*
X134324435Y-87405718D01*
X134311203Y-87309129D01*
X134310037Y-87300615D01*
X134272360Y-87213548D01*
X134775000Y-87213548D01*
X134775000Y-87778550D01*
X134775699Y-87787909D01*
X134788714Y-87874477D01*
X134794191Y-87892278D01*
X134844600Y-87997255D01*
X134855074Y-88012667D01*
X134934120Y-88098178D01*
X134948661Y-88109828D01*
X135049357Y-88168316D01*
X135066680Y-88175175D01*
X135166785Y-88198378D01*
X135180965Y-88200000D01*
X135206885Y-88200000D01*
X135222124Y-88195525D01*
X135223329Y-88194135D01*
X135225000Y-88186452D01*
X135225000Y-87218115D01*
X135220525Y-87202876D01*
X135219135Y-87201671D01*
X135211452Y-87200000D01*
X134793115Y-87200000D01*
X134777876Y-87204475D01*
X134776671Y-87205865D01*
X134775000Y-87213548D01*
X134272360Y-87213548D01*
X134269035Y-87205865D01*
X134253567Y-87170120D01*
X134253566Y-87170118D01*
X134250155Y-87162236D01*
X134155266Y-87045058D01*
X134148264Y-87040082D01*
X134148262Y-87040080D01*
X134039363Y-86962690D01*
X134032361Y-86957714D01*
X133890495Y-86906639D01*
X133822572Y-86899500D01*
X133238499Y-86899500D01*
X133234253Y-86900082D01*
X133234247Y-86900082D01*
X133186382Y-86906639D01*
X133125615Y-86914963D01*
X133117731Y-86918375D01*
X133117730Y-86918375D01*
X132995120Y-86971433D01*
X132995118Y-86971434D01*
X132987236Y-86974845D01*
X132980558Y-86980253D01*
X132892284Y-87051736D01*
X132870058Y-87069734D01*
X132865082Y-87076736D01*
X132865080Y-87076738D01*
X132809066Y-87155558D01*
X132782714Y-87192639D01*
X132731639Y-87334505D01*
X132724500Y-87402428D01*
X128220378Y-87402428D01*
X128069265Y-87068526D01*
X128067796Y-87065148D01*
X128047402Y-87016334D01*
X128044763Y-87009458D01*
X128027240Y-86959491D01*
X128026071Y-86955997D01*
X127819244Y-86305965D01*
X134775000Y-86305965D01*
X134775000Y-86881885D01*
X134779475Y-86897124D01*
X134780865Y-86898329D01*
X134788548Y-86900000D01*
X135206885Y-86900000D01*
X135222124Y-86895525D01*
X135223329Y-86894135D01*
X135225000Y-86886452D01*
X135225000Y-85918115D01*
X135220525Y-85902876D01*
X135219135Y-85901671D01*
X135211452Y-85900000D01*
X135196450Y-85900000D01*
X135187091Y-85900699D01*
X135100523Y-85913714D01*
X135082722Y-85919191D01*
X134977745Y-85969600D01*
X134962333Y-85980074D01*
X134876822Y-86059120D01*
X134865172Y-86073661D01*
X134806684Y-86174357D01*
X134799825Y-86191680D01*
X134776622Y-86291785D01*
X134775000Y-86305965D01*
X127819244Y-86305965D01*
X127665824Y-85823784D01*
X127664759Y-85820259D01*
X127650193Y-85769378D01*
X127648374Y-85762240D01*
X127636808Y-85710604D01*
X127636055Y-85706998D01*
X127611188Y-85578467D01*
X127536810Y-85194040D01*
X127410364Y-84540485D01*
X127409717Y-84536858D01*
X127401185Y-84484611D01*
X127400211Y-84477312D01*
X127394747Y-84424670D01*
X127394420Y-84420999D01*
X127389400Y-84353437D01*
X127306370Y-83236116D01*
X127306151Y-83232445D01*
X127303772Y-83179558D01*
X127303657Y-83172191D01*
X127304373Y-83119298D01*
X127304476Y-83115617D01*
X127305724Y-83086439D01*
X128596462Y-83086439D01*
X128596997Y-83090957D01*
X128596997Y-83090963D01*
X128611590Y-83214258D01*
X128628878Y-83360321D01*
X128700491Y-83626655D01*
X128809801Y-83879862D01*
X128812192Y-83883741D01*
X128943844Y-84097320D01*
X128954518Y-84114637D01*
X129131610Y-84326062D01*
X129337368Y-84509708D01*
X129567482Y-84661728D01*
X129588743Y-84671710D01*
X129812995Y-84776997D01*
X129813000Y-84776999D01*
X129817130Y-84778938D01*
X130081083Y-84858881D01*
X130353812Y-84899884D01*
X130358377Y-84899904D01*
X130358378Y-84899904D01*
X130491707Y-84900485D01*
X130629603Y-84901087D01*
X130658922Y-84896940D01*
X130898163Y-84863105D01*
X130898167Y-84863104D01*
X130902679Y-84862466D01*
X131167320Y-84784829D01*
X131208528Y-84765919D01*
X131413825Y-84671710D01*
X131413829Y-84671708D01*
X131417982Y-84669802D01*
X131649413Y-84519796D01*
X131856766Y-84337953D01*
X131861940Y-84331885D01*
X131932597Y-84249009D01*
X132035696Y-84128081D01*
X132038119Y-84124225D01*
X132038124Y-84124219D01*
X132180028Y-83898443D01*
X132180029Y-83898441D01*
X132182457Y-83894578D01*
X132201359Y-83851822D01*
X132292128Y-83646507D01*
X132292130Y-83646502D01*
X132293972Y-83642335D01*
X132344798Y-83459682D01*
X132366683Y-83381036D01*
X132366684Y-83381031D01*
X132367907Y-83376636D01*
X132394108Y-83170679D01*
X132402317Y-83106153D01*
X132402317Y-83106150D01*
X132402712Y-83103047D01*
X132403029Y-83091350D01*
X132405415Y-83003137D01*
X132405500Y-83000000D01*
X132385541Y-82724929D01*
X132343541Y-82534690D01*
X132327069Y-82460081D01*
X132327068Y-82460077D01*
X132326084Y-82455621D01*
X132228372Y-82197716D01*
X132094454Y-81956618D01*
X132008610Y-81844135D01*
X131929902Y-81741002D01*
X131929898Y-81740998D01*
X131927135Y-81737377D01*
X131901308Y-81712129D01*
X131788526Y-81601878D01*
X131742800Y-81557178D01*
X134749500Y-81557178D01*
X134749500Y-81941688D01*
X134750199Y-81946335D01*
X134750199Y-81946340D01*
X134759897Y-82010845D01*
X134764636Y-82042365D01*
X134823265Y-82164459D01*
X134829657Y-82171373D01*
X134829657Y-82171374D01*
X134842331Y-82185085D01*
X134915202Y-82263916D01*
X135032319Y-82331943D01*
X135148748Y-82358930D01*
X135833258Y-82358930D01*
X135837905Y-82358231D01*
X135837910Y-82358231D01*
X135924624Y-82345194D01*
X135924625Y-82345194D01*
X135933935Y-82343794D01*
X136056029Y-82285165D01*
X136155486Y-82193228D01*
X136223513Y-82076111D01*
X136250500Y-81959682D01*
X136250500Y-81575172D01*
X136248041Y-81558811D01*
X136236764Y-81483806D01*
X136236764Y-81483805D01*
X136235364Y-81474495D01*
X136176735Y-81352401D01*
X136084798Y-81252944D01*
X136076655Y-81248214D01*
X136069304Y-81242325D01*
X136070208Y-81241197D01*
X136028261Y-81196970D01*
X136015010Y-81127220D01*
X136041572Y-81061380D01*
X136051312Y-81050436D01*
X136176843Y-80924905D01*
X136239155Y-80890879D01*
X136265938Y-80888000D01*
X136751485Y-80888000D01*
X136819606Y-80908002D01*
X136844010Y-80928471D01*
X136857048Y-80942575D01*
X136915202Y-81005486D01*
X136923344Y-81010215D01*
X136923345Y-81010216D01*
X136940780Y-81020343D01*
X137032319Y-81073513D01*
X137148748Y-81100500D01*
X137833258Y-81100500D01*
X137837905Y-81099801D01*
X137837910Y-81099801D01*
X137924624Y-81086764D01*
X137924625Y-81086764D01*
X137933935Y-81085364D01*
X138056029Y-81026735D01*
X138155486Y-80934798D01*
X138223513Y-80817681D01*
X138250500Y-80701252D01*
X138250500Y-80316742D01*
X138248633Y-80304318D01*
X138236764Y-80225376D01*
X138236764Y-80225375D01*
X138235364Y-80216065D01*
X138221052Y-80186260D01*
X138209596Y-80116195D01*
X138237839Y-80051058D01*
X138278022Y-80019155D01*
X138383634Y-79966038D01*
X138390418Y-79962626D01*
X138511669Y-79859067D01*
X138576459Y-79830036D01*
X138646659Y-79840641D01*
X138699981Y-79887515D01*
X138719500Y-79954878D01*
X138719500Y-80225000D01*
X138719567Y-80226441D01*
X138719567Y-80226458D01*
X138720219Y-80240558D01*
X138720803Y-80253188D01*
X138751528Y-80361173D01*
X138819186Y-80450767D01*
X138914641Y-80509870D01*
X138926113Y-80512014D01*
X138926114Y-80512015D01*
X139019275Y-80529430D01*
X139019277Y-80529430D01*
X139025000Y-80530500D01*
X139198500Y-80530500D01*
X139266621Y-80550502D01*
X139313114Y-80604158D01*
X139324500Y-80656500D01*
X139324500Y-81286150D01*
X139304498Y-81354271D01*
X139284029Y-81378675D01*
X139251427Y-81408811D01*
X139251425Y-81408814D01*
X139244514Y-81415202D01*
X139201194Y-81489784D01*
X139196332Y-81498154D01*
X139144821Y-81547012D01*
X139075072Y-81560266D01*
X139028911Y-81543275D01*
X139027638Y-81545679D01*
X139023098Y-81543275D01*
X138877829Y-81466359D01*
X138713423Y-81425063D01*
X138705825Y-81425023D01*
X138705823Y-81425023D01*
X138632792Y-81424641D01*
X138543912Y-81424176D01*
X138536533Y-81425948D01*
X138536529Y-81425948D01*
X138386461Y-81461976D01*
X138386457Y-81461977D01*
X138379082Y-81463748D01*
X138372337Y-81467229D01*
X138372338Y-81467229D01*
X138245817Y-81532531D01*
X138176109Y-81546000D01*
X138110186Y-81519645D01*
X138095501Y-81506092D01*
X138091191Y-81501429D01*
X138091188Y-81501426D01*
X138084798Y-81494514D01*
X137967681Y-81426487D01*
X137851252Y-81399500D01*
X137166742Y-81399500D01*
X137162095Y-81400199D01*
X137162090Y-81400199D01*
X137075376Y-81413236D01*
X137075375Y-81413236D01*
X137066065Y-81414636D01*
X136992574Y-81449926D01*
X136958353Y-81466359D01*
X136943971Y-81473265D01*
X136844514Y-81565202D01*
X136776487Y-81682319D01*
X136749500Y-81798748D01*
X136749500Y-82183258D01*
X136750199Y-82187905D01*
X136750199Y-82187910D01*
X136760587Y-82257002D01*
X136764636Y-82283935D01*
X136823265Y-82406029D01*
X136911310Y-82501276D01*
X136911311Y-82501277D01*
X136915202Y-82505486D01*
X136914624Y-82506020D01*
X136950855Y-82557884D01*
X136953592Y-82628828D01*
X136917539Y-82689990D01*
X136879205Y-82713718D01*
X136879082Y-82713748D01*
X136728450Y-82791495D01*
X136722728Y-82796487D01*
X136722726Y-82796488D01*
X136691610Y-82823632D01*
X136600711Y-82902928D01*
X136583904Y-82926842D01*
X136508465Y-83034181D01*
X136503240Y-83041615D01*
X136495366Y-83061811D01*
X136488909Y-83078373D01*
X136445528Y-83134574D01*
X136378649Y-83158401D01*
X136309505Y-83142287D01*
X136260049Y-83091350D01*
X136246916Y-83051335D01*
X136246592Y-83049176D01*
X136239670Y-83003137D01*
X136236764Y-82983806D01*
X136236764Y-82983805D01*
X136235364Y-82974495D01*
X136176735Y-82852401D01*
X136150457Y-82823973D01*
X136119502Y-82790487D01*
X136084798Y-82752944D01*
X136072026Y-82745525D01*
X136028888Y-82720469D01*
X135967681Y-82684917D01*
X135851252Y-82657930D01*
X135166742Y-82657930D01*
X135162095Y-82658629D01*
X135162090Y-82658629D01*
X135075376Y-82671666D01*
X135075375Y-82671666D01*
X135066065Y-82673066D01*
X134943971Y-82731695D01*
X134937057Y-82738087D01*
X134937056Y-82738087D01*
X134917753Y-82755931D01*
X134844514Y-82823632D01*
X134776487Y-82940749D01*
X134749500Y-83057178D01*
X134749500Y-83441688D01*
X134750199Y-83446335D01*
X134750199Y-83446340D01*
X134763236Y-83533054D01*
X134764636Y-83542365D01*
X134802994Y-83622244D01*
X134814645Y-83646507D01*
X134823265Y-83664459D01*
X134915202Y-83763916D01*
X134923344Y-83768645D01*
X134923345Y-83768646D01*
X134940780Y-83778773D01*
X135032319Y-83831943D01*
X135148748Y-83858930D01*
X135833258Y-83858930D01*
X135837905Y-83858231D01*
X135837910Y-83858231D01*
X135924624Y-83845194D01*
X135924625Y-83845194D01*
X135933935Y-83843794D01*
X136056029Y-83785165D01*
X136155486Y-83693228D01*
X136223513Y-83576111D01*
X136223718Y-83576230D01*
X136263824Y-83524829D01*
X136330827Y-83501353D01*
X136399886Y-83517829D01*
X136449074Y-83569025D01*
X136455625Y-83583881D01*
X136496395Y-83695290D01*
X136500631Y-83701593D01*
X136500631Y-83701594D01*
X136518066Y-83727540D01*
X136590940Y-83835988D01*
X136716317Y-83950073D01*
X136865288Y-84030957D01*
X137029253Y-84073973D01*
X137113499Y-84075296D01*
X137174277Y-84076251D01*
X137242075Y-84097320D01*
X137261393Y-84113140D01*
X137412595Y-84264342D01*
X137446621Y-84326654D01*
X137449500Y-84353437D01*
X137449500Y-84697798D01*
X137429498Y-84765919D01*
X137375842Y-84812412D01*
X137305568Y-84822516D01*
X137292805Y-84820002D01*
X137220794Y-84801914D01*
X137220790Y-84801914D01*
X137213423Y-84800063D01*
X137205825Y-84800023D01*
X137205823Y-84800023D01*
X137132792Y-84799641D01*
X137043912Y-84799176D01*
X137036533Y-84800948D01*
X137036529Y-84800948D01*
X136886461Y-84836976D01*
X136886457Y-84836977D01*
X136879082Y-84838748D01*
X136835615Y-84861183D01*
X136746465Y-84907197D01*
X136728450Y-84916495D01*
X136722728Y-84921487D01*
X136722726Y-84921488D01*
X136680505Y-84958320D01*
X136600711Y-85027928D01*
X136503240Y-85166615D01*
X136441665Y-85324549D01*
X136440507Y-85333345D01*
X136420626Y-85484356D01*
X136419539Y-85492612D01*
X136423599Y-85529387D01*
X136423946Y-85532528D01*
X136411540Y-85602432D01*
X136387802Y-85635450D01*
X136301803Y-85721449D01*
X136301051Y-85722484D01*
X136299319Y-85724357D01*
X136276718Y-85746958D01*
X136268932Y-85762240D01*
X136265840Y-85768308D01*
X136255507Y-85785170D01*
X136241421Y-85804557D01*
X136234013Y-85827358D01*
X136226452Y-85845612D01*
X136215570Y-85866968D01*
X136214019Y-85876761D01*
X136214018Y-85876764D01*
X136211819Y-85890644D01*
X136207205Y-85909864D01*
X136199800Y-85932655D01*
X136199800Y-85942576D01*
X136198249Y-85952367D01*
X136195103Y-85951869D01*
X136179798Y-86003994D01*
X136159328Y-86028398D01*
X136126430Y-86058808D01*
X136126428Y-86058811D01*
X136119514Y-86065202D01*
X136114786Y-86073342D01*
X136114784Y-86073345D01*
X136109679Y-86082134D01*
X136058168Y-86130992D01*
X135988419Y-86144245D01*
X135922578Y-86117684D01*
X135896513Y-86089668D01*
X135894926Y-86087333D01*
X135815880Y-86001822D01*
X135801339Y-85990172D01*
X135700643Y-85931684D01*
X135683320Y-85924825D01*
X135583215Y-85901622D01*
X135569035Y-85900000D01*
X135543115Y-85900000D01*
X135527876Y-85904475D01*
X135526671Y-85905865D01*
X135525000Y-85913548D01*
X135525000Y-88181885D01*
X135529475Y-88197124D01*
X135530865Y-88198329D01*
X135538548Y-88200000D01*
X135553550Y-88200000D01*
X135562909Y-88199301D01*
X135649477Y-88186286D01*
X135667278Y-88180809D01*
X135772255Y-88130400D01*
X135787667Y-88119926D01*
X135873178Y-88040880D01*
X135884830Y-88026336D01*
X135889734Y-88017893D01*
X135941245Y-87969034D01*
X136010993Y-87955781D01*
X136076835Y-87982341D01*
X136097617Y-88004679D01*
X136098265Y-88006029D01*
X136104661Y-88012948D01*
X136104663Y-88012951D01*
X136166024Y-88079331D01*
X136197577Y-88142931D01*
X136199500Y-88164860D01*
X136199500Y-90836150D01*
X136179498Y-90904271D01*
X136159029Y-90928675D01*
X136126427Y-90958811D01*
X136126425Y-90958814D01*
X136119514Y-90965202D01*
X136114786Y-90973342D01*
X136114784Y-90973345D01*
X136109679Y-90982134D01*
X136058168Y-91030992D01*
X135988419Y-91044245D01*
X135922578Y-91017684D01*
X135896513Y-90989668D01*
X135894926Y-90987333D01*
X135815880Y-90901822D01*
X135801339Y-90890172D01*
X135700643Y-90831684D01*
X135683320Y-90824825D01*
X135583215Y-90801622D01*
X135569035Y-90800000D01*
X135543115Y-90800000D01*
X135527876Y-90804475D01*
X135526671Y-90805865D01*
X135525000Y-90813548D01*
X135525000Y-93081885D01*
X135529475Y-93097124D01*
X135530865Y-93098329D01*
X135538548Y-93100000D01*
X135553550Y-93100000D01*
X135562909Y-93099301D01*
X135649477Y-93086286D01*
X135667278Y-93080809D01*
X135772255Y-93030400D01*
X135787667Y-93019926D01*
X135873178Y-92940880D01*
X135884830Y-92926336D01*
X135889734Y-92917893D01*
X135941245Y-92869034D01*
X136010993Y-92855781D01*
X136076835Y-92882341D01*
X136097617Y-92904679D01*
X136098265Y-92906029D01*
X136190202Y-93005486D01*
X136307319Y-93073513D01*
X136423748Y-93100500D01*
X136808258Y-93100500D01*
X136812905Y-93099801D01*
X136812910Y-93099801D01*
X136899624Y-93086764D01*
X136899625Y-93086764D01*
X136908935Y-93085364D01*
X137031029Y-93026735D01*
X137130486Y-92934798D01*
X137140042Y-92918346D01*
X137191552Y-92869489D01*
X137261301Y-92856235D01*
X137327142Y-92882795D01*
X137347739Y-92904934D01*
X137348265Y-92906029D01*
X137354654Y-92912941D01*
X137354655Y-92912942D01*
X137399851Y-92961834D01*
X137440202Y-93005486D01*
X137557319Y-93073513D01*
X137673748Y-93100500D01*
X138058258Y-93100500D01*
X138062905Y-93099801D01*
X138062910Y-93099801D01*
X138149624Y-93086764D01*
X138149625Y-93086764D01*
X138158935Y-93085364D01*
X138281029Y-93026735D01*
X138380486Y-92934798D01*
X138390042Y-92918346D01*
X138441552Y-92869489D01*
X138511301Y-92856235D01*
X138577142Y-92882795D01*
X138597739Y-92904934D01*
X138598265Y-92906029D01*
X138604654Y-92912941D01*
X138604655Y-92912942D01*
X138649851Y-92961834D01*
X138690202Y-93005486D01*
X138807319Y-93073513D01*
X138923748Y-93100500D01*
X139308258Y-93100500D01*
X139312905Y-93099801D01*
X139312910Y-93099801D01*
X139399624Y-93086764D01*
X139399625Y-93086764D01*
X139408935Y-93085364D01*
X139531029Y-93026735D01*
X139630486Y-92934798D01*
X139640042Y-92918346D01*
X139691552Y-92869489D01*
X139761301Y-92856235D01*
X139827142Y-92882795D01*
X139847739Y-92904934D01*
X139848265Y-92906029D01*
X139854654Y-92912941D01*
X139854655Y-92912942D01*
X139899851Y-92961834D01*
X139940202Y-93005486D01*
X140057319Y-93073513D01*
X140173748Y-93100500D01*
X140558258Y-93100500D01*
X140562905Y-93099801D01*
X140562910Y-93099801D01*
X140649624Y-93086764D01*
X140649625Y-93086764D01*
X140658935Y-93085364D01*
X140781029Y-93026735D01*
X140880486Y-92934798D01*
X140890042Y-92918346D01*
X140941552Y-92869489D01*
X141011301Y-92856235D01*
X141077142Y-92882795D01*
X141097739Y-92904934D01*
X141098265Y-92906029D01*
X141104654Y-92912941D01*
X141104655Y-92912942D01*
X141149851Y-92961834D01*
X141190202Y-93005486D01*
X141307319Y-93073513D01*
X141423748Y-93100500D01*
X141808258Y-93100500D01*
X141812905Y-93099801D01*
X141812910Y-93099801D01*
X141899624Y-93086764D01*
X141899625Y-93086764D01*
X141908935Y-93085364D01*
X142031029Y-93026735D01*
X142130486Y-92934798D01*
X142198513Y-92817681D01*
X142225500Y-92701252D01*
X142225500Y-91216742D01*
X142210364Y-91116065D01*
X142151735Y-90993971D01*
X142145341Y-90987054D01*
X142145340Y-90987052D01*
X142083976Y-90920669D01*
X142052423Y-90857069D01*
X142050500Y-90835140D01*
X142050500Y-88163850D01*
X142070502Y-88095729D01*
X142090971Y-88071325D01*
X142123573Y-88041189D01*
X142123575Y-88041186D01*
X142130486Y-88034798D01*
X142198513Y-87917681D01*
X142225500Y-87801252D01*
X142225500Y-87402428D01*
X142674500Y-87402428D01*
X142674500Y-91386501D01*
X142675082Y-91390747D01*
X142675082Y-91390753D01*
X142676464Y-91400841D01*
X142689963Y-91499385D01*
X142749845Y-91637764D01*
X142755253Y-91644442D01*
X142825626Y-91731345D01*
X142844734Y-91754942D01*
X142851736Y-91759918D01*
X142851738Y-91759920D01*
X142943533Y-91825155D01*
X142967639Y-91842286D01*
X143109505Y-91893361D01*
X143177428Y-91900500D01*
X143761501Y-91900500D01*
X143765747Y-91899918D01*
X143765753Y-91899918D01*
X143832408Y-91890787D01*
X143874385Y-91885037D01*
X143882270Y-91881625D01*
X144004880Y-91828567D01*
X144004882Y-91828566D01*
X144012764Y-91825155D01*
X144091786Y-91761164D01*
X144123264Y-91735674D01*
X144123265Y-91735673D01*
X144129942Y-91730266D01*
X144134918Y-91723264D01*
X144134920Y-91723262D01*
X144212310Y-91614363D01*
X144217286Y-91607361D01*
X144268361Y-91465495D01*
X144275500Y-91397572D01*
X144275500Y-87413499D01*
X144274435Y-87405718D01*
X144261203Y-87309129D01*
X144260037Y-87300615D01*
X144219035Y-87205865D01*
X144203567Y-87170120D01*
X144203566Y-87170118D01*
X144200155Y-87162236D01*
X144105266Y-87045058D01*
X144098264Y-87040082D01*
X144098262Y-87040080D01*
X143989363Y-86962690D01*
X143982361Y-86957714D01*
X143840495Y-86906639D01*
X143772572Y-86899500D01*
X143188499Y-86899500D01*
X143184253Y-86900082D01*
X143184247Y-86900082D01*
X143136382Y-86906639D01*
X143075615Y-86914963D01*
X143067731Y-86918375D01*
X143067730Y-86918375D01*
X142945120Y-86971433D01*
X142945118Y-86971434D01*
X142937236Y-86974845D01*
X142930558Y-86980253D01*
X142842284Y-87051736D01*
X142820058Y-87069734D01*
X142815082Y-87076736D01*
X142815080Y-87076738D01*
X142759066Y-87155558D01*
X142732714Y-87192639D01*
X142681639Y-87334505D01*
X142674500Y-87402428D01*
X142225500Y-87402428D01*
X142225500Y-86316742D01*
X142210364Y-86216065D01*
X142162892Y-86117205D01*
X142155812Y-86102461D01*
X142155812Y-86102460D01*
X142151735Y-86093971D01*
X142059798Y-85994514D01*
X141942681Y-85926487D01*
X141826252Y-85899500D01*
X141678438Y-85899500D01*
X141610317Y-85879498D01*
X141589342Y-85862595D01*
X141122114Y-85395366D01*
X141088089Y-85333054D01*
X141092190Y-85275711D01*
X141091493Y-85275559D01*
X141092548Y-85270708D01*
X141093154Y-85262238D01*
X141095107Y-85258947D01*
X141100000Y-85236452D01*
X141100000Y-84663548D01*
X141400000Y-84663548D01*
X141400000Y-85231885D01*
X141404475Y-85247124D01*
X141405865Y-85248329D01*
X141413548Y-85250000D01*
X141428550Y-85250000D01*
X141437909Y-85249301D01*
X141524477Y-85236286D01*
X141542278Y-85230809D01*
X141647255Y-85180400D01*
X141662667Y-85169926D01*
X141748178Y-85090880D01*
X141759828Y-85076339D01*
X141818316Y-84975643D01*
X141825175Y-84958320D01*
X141848378Y-84858215D01*
X141850000Y-84844035D01*
X141850000Y-84668115D01*
X141845525Y-84652876D01*
X141844135Y-84651671D01*
X141836452Y-84650000D01*
X141418115Y-84650000D01*
X141402876Y-84654475D01*
X141401671Y-84655865D01*
X141400000Y-84663548D01*
X141100000Y-84663548D01*
X141100000Y-83768115D01*
X141098659Y-83763548D01*
X141400000Y-83763548D01*
X141400000Y-84331885D01*
X141404475Y-84347124D01*
X141405865Y-84348329D01*
X141413548Y-84350000D01*
X141831885Y-84350000D01*
X141847124Y-84345525D01*
X141848329Y-84344135D01*
X141850000Y-84336452D01*
X141850000Y-84171450D01*
X141849301Y-84162091D01*
X141836286Y-84075523D01*
X141830809Y-84057722D01*
X141780400Y-83952745D01*
X141769926Y-83937333D01*
X141690880Y-83851822D01*
X141676339Y-83840172D01*
X141575643Y-83781684D01*
X141558320Y-83774825D01*
X141458215Y-83751622D01*
X141444035Y-83750000D01*
X141418115Y-83750000D01*
X141402876Y-83754475D01*
X141401671Y-83755865D01*
X141400000Y-83763548D01*
X141098659Y-83763548D01*
X141095525Y-83752876D01*
X141094135Y-83751671D01*
X141086452Y-83750000D01*
X141071448Y-83750000D01*
X141060889Y-83750789D01*
X140991467Y-83735918D01*
X140941105Y-83685876D01*
X140925500Y-83625139D01*
X140925500Y-83086439D01*
X144596462Y-83086439D01*
X144596997Y-83090957D01*
X144596997Y-83090963D01*
X144611590Y-83214258D01*
X144628878Y-83360321D01*
X144700491Y-83626655D01*
X144809801Y-83879862D01*
X144812192Y-83883741D01*
X144943844Y-84097320D01*
X144954518Y-84114637D01*
X145131610Y-84326062D01*
X145337368Y-84509708D01*
X145567482Y-84661728D01*
X145588743Y-84671710D01*
X145812995Y-84776997D01*
X145813000Y-84776999D01*
X145817130Y-84778938D01*
X146081083Y-84858881D01*
X146353812Y-84899884D01*
X146358377Y-84899904D01*
X146358378Y-84899904D01*
X146491707Y-84900485D01*
X146629603Y-84901087D01*
X146658922Y-84896940D01*
X146898163Y-84863105D01*
X146898167Y-84863104D01*
X146902679Y-84862466D01*
X147167320Y-84784829D01*
X147208528Y-84765919D01*
X147413825Y-84671710D01*
X147413829Y-84671708D01*
X147417982Y-84669802D01*
X147649413Y-84519796D01*
X147856766Y-84337953D01*
X147861940Y-84331885D01*
X147932597Y-84249009D01*
X148035696Y-84128081D01*
X148038119Y-84124225D01*
X148038124Y-84124219D01*
X148180028Y-83898443D01*
X148180029Y-83898441D01*
X148182457Y-83894578D01*
X148201359Y-83851822D01*
X148292128Y-83646507D01*
X148292130Y-83646502D01*
X148293972Y-83642335D01*
X148344798Y-83459682D01*
X148366683Y-83381036D01*
X148366684Y-83381031D01*
X148367907Y-83376636D01*
X148394108Y-83170679D01*
X148402317Y-83106153D01*
X148402317Y-83106150D01*
X148402712Y-83103047D01*
X148403029Y-83091350D01*
X148405415Y-83003137D01*
X148405500Y-83000000D01*
X148385541Y-82724929D01*
X148343541Y-82534690D01*
X148327069Y-82460081D01*
X148327068Y-82460077D01*
X148326084Y-82455621D01*
X148228372Y-82197716D01*
X148094454Y-81956618D01*
X148008610Y-81844135D01*
X147929902Y-81741002D01*
X147929898Y-81740998D01*
X147927135Y-81737377D01*
X147901308Y-81712129D01*
X147788526Y-81601878D01*
X147729920Y-81544587D01*
X147603352Y-81452461D01*
X147510631Y-81384971D01*
X147510628Y-81384969D01*
X147506939Y-81382284D01*
X147336441Y-81292581D01*
X147266905Y-81255996D01*
X147266899Y-81255993D01*
X147262865Y-81253871D01*
X147258560Y-81252351D01*
X147258556Y-81252349D01*
X147007123Y-81163559D01*
X147007122Y-81163559D01*
X147002810Y-81162036D01*
X146872044Y-81136262D01*
X146736694Y-81109584D01*
X146736688Y-81109583D01*
X146732222Y-81108703D01*
X146727669Y-81108476D01*
X146727666Y-81108476D01*
X146461338Y-81095217D01*
X146461332Y-81095217D01*
X146456769Y-81094990D01*
X146182222Y-81121185D01*
X145914332Y-81186737D01*
X145910106Y-81188449D01*
X145910102Y-81188450D01*
X145662944Y-81288559D01*
X145662939Y-81288562D01*
X145658711Y-81290274D01*
X145654776Y-81292578D01*
X145654770Y-81292581D01*
X145428509Y-81425063D01*
X145420713Y-81429628D01*
X145205325Y-81601878D01*
X145017058Y-81803416D01*
X144859856Y-82030022D01*
X144800168Y-82150000D01*
X144792975Y-82164459D01*
X144737013Y-82276946D01*
X144651101Y-82539018D01*
X144619651Y-82720155D01*
X144606398Y-82796488D01*
X144603922Y-82810746D01*
X144601109Y-82914703D01*
X144597668Y-83041886D01*
X144596462Y-83086439D01*
X140925500Y-83086439D01*
X140925500Y-82876000D01*
X140945502Y-82807879D01*
X140999158Y-82761386D01*
X141051500Y-82750000D01*
X141081885Y-82750000D01*
X141097124Y-82745525D01*
X141098329Y-82744135D01*
X141100000Y-82736452D01*
X141100000Y-82168115D01*
X141098659Y-82163548D01*
X141400000Y-82163548D01*
X141400000Y-82731885D01*
X141404475Y-82747124D01*
X141405865Y-82748329D01*
X141413548Y-82750000D01*
X141428550Y-82750000D01*
X141437909Y-82749301D01*
X141524477Y-82736286D01*
X141542278Y-82730809D01*
X141647255Y-82680400D01*
X141662667Y-82669926D01*
X141748178Y-82590880D01*
X141759828Y-82576339D01*
X141818316Y-82475643D01*
X141825175Y-82458320D01*
X141848378Y-82358215D01*
X141850000Y-82344035D01*
X141850000Y-82168115D01*
X141845525Y-82152876D01*
X141844135Y-82151671D01*
X141836452Y-82150000D01*
X141418115Y-82150000D01*
X141402876Y-82154475D01*
X141401671Y-82155865D01*
X141400000Y-82163548D01*
X141098659Y-82163548D01*
X141095525Y-82152876D01*
X141094135Y-82151671D01*
X141086452Y-82150000D01*
X140668115Y-82150000D01*
X140648284Y-82155823D01*
X140596280Y-82189243D01*
X140525283Y-82189241D01*
X140471689Y-82157441D01*
X140387405Y-82073157D01*
X140353379Y-82010845D01*
X140350500Y-81984062D01*
X140350500Y-81666742D01*
X140348880Y-81655965D01*
X140650000Y-81655965D01*
X140650000Y-81831885D01*
X140654475Y-81847124D01*
X140655865Y-81848329D01*
X140663548Y-81850000D01*
X141081885Y-81850000D01*
X141097124Y-81845525D01*
X141098329Y-81844135D01*
X141100000Y-81836452D01*
X141100000Y-81268115D01*
X141098659Y-81263548D01*
X141400000Y-81263548D01*
X141400000Y-81831885D01*
X141404475Y-81847124D01*
X141405865Y-81848329D01*
X141413548Y-81850000D01*
X141831885Y-81850000D01*
X141847124Y-81845525D01*
X141848329Y-81844135D01*
X141850000Y-81836452D01*
X141850000Y-81671450D01*
X141849301Y-81662091D01*
X141836286Y-81575523D01*
X141830809Y-81557722D01*
X141780400Y-81452745D01*
X141769926Y-81437333D01*
X141690880Y-81351822D01*
X141676339Y-81340172D01*
X141575643Y-81281684D01*
X141558320Y-81274825D01*
X141458215Y-81251622D01*
X141444035Y-81250000D01*
X141418115Y-81250000D01*
X141402876Y-81254475D01*
X141401671Y-81255865D01*
X141400000Y-81263548D01*
X141098659Y-81263548D01*
X141095525Y-81252876D01*
X141094135Y-81251671D01*
X141086452Y-81250000D01*
X141071450Y-81250000D01*
X141062091Y-81250699D01*
X140975523Y-81263714D01*
X140957722Y-81269191D01*
X140852745Y-81319600D01*
X140837333Y-81330074D01*
X140751822Y-81409120D01*
X140740172Y-81423661D01*
X140681684Y-81524357D01*
X140674825Y-81541680D01*
X140651622Y-81641785D01*
X140650000Y-81655965D01*
X140348880Y-81655965D01*
X140346113Y-81637558D01*
X140336764Y-81575376D01*
X140336764Y-81575375D01*
X140335364Y-81566065D01*
X140276735Y-81443971D01*
X140270342Y-81437055D01*
X140270340Y-81437052D01*
X140208976Y-81370669D01*
X140177423Y-81307069D01*
X140175500Y-81285140D01*
X140175500Y-80393431D01*
X140175300Y-80392169D01*
X140175200Y-80389618D01*
X140175200Y-80357655D01*
X140167795Y-80334864D01*
X140163181Y-80315644D01*
X140160982Y-80301764D01*
X140160981Y-80301761D01*
X140159430Y-80291968D01*
X140148548Y-80270612D01*
X140140987Y-80252358D01*
X140133579Y-80229557D01*
X140119493Y-80210170D01*
X140109160Y-80193308D01*
X140102783Y-80180793D01*
X140098282Y-80171958D01*
X140089872Y-80163548D01*
X140820000Y-80163548D01*
X140820000Y-80223532D01*
X140820067Y-80226457D01*
X140820965Y-80245869D01*
X140823294Y-80260147D01*
X140848780Y-80349721D01*
X140859011Y-80370267D01*
X140912485Y-80441079D01*
X140929453Y-80456546D01*
X141004892Y-80503256D01*
X141026298Y-80511549D01*
X141119273Y-80528929D01*
X141130828Y-80530000D01*
X141256885Y-80530000D01*
X141272124Y-80525525D01*
X141273329Y-80524135D01*
X141275000Y-80516452D01*
X141275000Y-80168115D01*
X141273659Y-80163548D01*
X141575000Y-80163548D01*
X141575000Y-80511885D01*
X141579475Y-80527124D01*
X141580865Y-80528329D01*
X141588548Y-80530000D01*
X141723532Y-80530000D01*
X141726457Y-80529933D01*
X141745869Y-80529035D01*
X141760147Y-80526706D01*
X141849721Y-80501220D01*
X141870267Y-80490989D01*
X141941079Y-80437515D01*
X141956546Y-80420547D01*
X142003256Y-80345108D01*
X142011549Y-80323702D01*
X142028929Y-80230727D01*
X142030000Y-80219172D01*
X142030000Y-80168115D01*
X142025525Y-80152876D01*
X142024135Y-80151671D01*
X142016452Y-80150000D01*
X141593115Y-80150000D01*
X141577876Y-80154475D01*
X141576671Y-80155865D01*
X141575000Y-80163548D01*
X141273659Y-80163548D01*
X141270525Y-80152876D01*
X141269135Y-80151671D01*
X141261452Y-80150000D01*
X140838115Y-80150000D01*
X140822876Y-80154475D01*
X140821671Y-80155865D01*
X140820000Y-80163548D01*
X140089872Y-80163548D01*
X140075681Y-80149357D01*
X140073949Y-80147484D01*
X140073197Y-80146449D01*
X139967405Y-80040657D01*
X139933379Y-79978345D01*
X139930500Y-79951562D01*
X139930500Y-79780828D01*
X140820000Y-79780828D01*
X140820000Y-79831885D01*
X140824475Y-79847124D01*
X140825865Y-79848329D01*
X140833548Y-79850000D01*
X141256885Y-79850000D01*
X141272124Y-79845525D01*
X141273329Y-79844135D01*
X141275000Y-79836452D01*
X141275000Y-79488115D01*
X141273659Y-79483548D01*
X141575000Y-79483548D01*
X141575000Y-79831885D01*
X141579475Y-79847124D01*
X141580865Y-79848329D01*
X141588548Y-79850000D01*
X142011885Y-79850000D01*
X142027124Y-79845525D01*
X142028329Y-79844135D01*
X142030000Y-79836452D01*
X142030000Y-79776468D01*
X142029933Y-79773543D01*
X142029035Y-79754131D01*
X142026706Y-79739853D01*
X142001220Y-79650279D01*
X141990989Y-79629733D01*
X141937515Y-79558921D01*
X141920547Y-79543454D01*
X141845108Y-79496744D01*
X141823702Y-79488451D01*
X141730727Y-79471071D01*
X141719172Y-79470000D01*
X141593115Y-79470000D01*
X141577876Y-79474475D01*
X141576671Y-79475865D01*
X141575000Y-79483548D01*
X141273659Y-79483548D01*
X141270525Y-79472876D01*
X141269135Y-79471671D01*
X141261452Y-79470000D01*
X141126468Y-79470000D01*
X141123543Y-79470067D01*
X141104131Y-79470965D01*
X141089853Y-79473294D01*
X141000279Y-79498780D01*
X140979733Y-79509011D01*
X140908921Y-79562485D01*
X140893454Y-79579453D01*
X140846744Y-79654892D01*
X140838451Y-79676298D01*
X140821071Y-79769273D01*
X140820000Y-79780828D01*
X139930500Y-79780828D01*
X139930500Y-79775000D01*
X139930236Y-79769273D01*
X139929533Y-79754084D01*
X139929197Y-79746812D01*
X139898472Y-79638827D01*
X139830814Y-79549233D01*
X139735359Y-79490130D01*
X139723887Y-79487986D01*
X139723886Y-79487985D01*
X139630725Y-79470570D01*
X139630723Y-79470570D01*
X139625000Y-79469500D01*
X139025000Y-79469500D01*
X139023559Y-79469567D01*
X139023542Y-79469567D01*
X139009442Y-79470219D01*
X138996812Y-79470803D01*
X138936425Y-79487985D01*
X138900059Y-79498332D01*
X138900058Y-79498332D01*
X138888827Y-79501528D01*
X138883907Y-79505243D01*
X138817553Y-79517072D01*
X138752018Y-79489766D01*
X138711648Y-79431364D01*
X138706561Y-79389788D01*
X138705345Y-79389775D01*
X138705457Y-79379135D01*
X138705457Y-79379129D01*
X138705500Y-79375000D01*
X138701666Y-79343319D01*
X138713341Y-79273290D01*
X138737658Y-79239090D01*
X139189342Y-78787405D01*
X139251655Y-78753380D01*
X139278438Y-78750500D01*
X139308258Y-78750500D01*
X139312905Y-78749801D01*
X139312910Y-78749801D01*
X139399624Y-78736764D01*
X139399625Y-78736764D01*
X139408935Y-78735364D01*
X139531029Y-78676735D01*
X139630486Y-78584798D01*
X139698513Y-78467681D01*
X139725500Y-78351252D01*
X139725500Y-76866742D01*
X139720263Y-76831904D01*
X139711764Y-76775376D01*
X139711764Y-76775375D01*
X139710364Y-76766065D01*
X139651735Y-76643971D01*
X139559798Y-76544514D01*
X139442681Y-76476487D01*
X139326252Y-76449500D01*
X138941742Y-76449500D01*
X138937095Y-76450199D01*
X138937090Y-76450199D01*
X138850376Y-76463236D01*
X138850375Y-76463236D01*
X138841065Y-76464636D01*
X138718971Y-76523265D01*
X138619514Y-76615202D01*
X138614785Y-76623344D01*
X138614784Y-76623345D01*
X138609679Y-76632134D01*
X138558168Y-76680992D01*
X138488419Y-76694245D01*
X138422578Y-76667684D01*
X138396513Y-76639668D01*
X138394926Y-76637333D01*
X138315880Y-76551822D01*
X138301339Y-76540172D01*
X138200643Y-76481684D01*
X138183320Y-76474825D01*
X138083215Y-76451622D01*
X138069035Y-76450000D01*
X138043115Y-76450000D01*
X138027876Y-76454475D01*
X138026671Y-76455865D01*
X138025000Y-76463548D01*
X138025000Y-77624000D01*
X138004998Y-77692121D01*
X137951342Y-77738614D01*
X137899000Y-77750000D01*
X137293115Y-77750000D01*
X137277876Y-77754475D01*
X137276671Y-77755865D01*
X137275000Y-77763548D01*
X137275000Y-78328550D01*
X137275699Y-78337909D01*
X137288714Y-78424477D01*
X137294191Y-78442278D01*
X137344600Y-78547255D01*
X137355074Y-78562667D01*
X137434120Y-78648178D01*
X137448661Y-78659828D01*
X137480140Y-78678112D01*
X137528999Y-78729623D01*
X137542253Y-78799371D01*
X137515693Y-78865213D01*
X137499684Y-78882015D01*
X137475711Y-78902928D01*
X137378240Y-79041615D01*
X137316665Y-79199549D01*
X137311459Y-79239090D01*
X137300684Y-79320940D01*
X137294539Y-79367612D01*
X137313140Y-79536102D01*
X137345923Y-79625686D01*
X137354842Y-79650056D01*
X137371395Y-79695290D01*
X137375630Y-79701593D01*
X137375634Y-79701600D01*
X137376728Y-79703228D01*
X137377160Y-79704594D01*
X137379081Y-79708365D01*
X137378452Y-79708685D01*
X137398118Y-79770926D01*
X137379511Y-79839441D01*
X137326817Y-79887020D01*
X137272144Y-79899500D01*
X137166742Y-79899500D01*
X137162095Y-79900199D01*
X137162090Y-79900199D01*
X137075376Y-79913236D01*
X137075375Y-79913236D01*
X137066065Y-79914636D01*
X136989167Y-79951562D01*
X136966127Y-79962626D01*
X136943971Y-79973265D01*
X136937057Y-79979657D01*
X136937056Y-79979657D01*
X136911236Y-80003525D01*
X136847636Y-80035077D01*
X136825707Y-80037000D01*
X136005931Y-80037000D01*
X136004669Y-80037200D01*
X136002118Y-80037300D01*
X135970155Y-80037300D01*
X135949707Y-80043944D01*
X135947364Y-80044705D01*
X135928144Y-80049319D01*
X135914264Y-80051518D01*
X135914261Y-80051519D01*
X135904468Y-80053070D01*
X135883113Y-80063951D01*
X135864858Y-80071513D01*
X135842057Y-80078921D01*
X135834033Y-80084751D01*
X135822670Y-80093007D01*
X135805808Y-80103340D01*
X135784458Y-80114218D01*
X135761857Y-80136819D01*
X135759984Y-80138551D01*
X135758949Y-80139303D01*
X135176803Y-80721449D01*
X135176051Y-80722484D01*
X135174319Y-80724357D01*
X135151718Y-80746958D01*
X135147217Y-80755793D01*
X135140840Y-80768308D01*
X135130507Y-80785170D01*
X135116421Y-80804557D01*
X135109013Y-80827358D01*
X135101452Y-80845612D01*
X135090570Y-80866968D01*
X135089019Y-80876761D01*
X135089018Y-80876764D01*
X135086819Y-80890644D01*
X135082205Y-80909864D01*
X135074800Y-80932655D01*
X135074800Y-80964618D01*
X135074700Y-80967169D01*
X135074500Y-80968431D01*
X135074500Y-81089746D01*
X135054498Y-81157867D01*
X135003043Y-81203329D01*
X134943971Y-81231695D01*
X134937057Y-81238087D01*
X134937056Y-81238087D01*
X134922414Y-81251622D01*
X134844514Y-81323632D01*
X134839785Y-81331774D01*
X134839784Y-81331775D01*
X134832385Y-81344514D01*
X134776487Y-81440749D01*
X134749500Y-81557178D01*
X131742800Y-81557178D01*
X131729920Y-81544587D01*
X131603352Y-81452461D01*
X131510631Y-81384971D01*
X131510628Y-81384969D01*
X131506939Y-81382284D01*
X131336441Y-81292581D01*
X131266905Y-81255996D01*
X131266899Y-81255993D01*
X131262865Y-81253871D01*
X131258560Y-81252351D01*
X131258556Y-81252349D01*
X131007123Y-81163559D01*
X131007122Y-81163559D01*
X131002810Y-81162036D01*
X130872044Y-81136262D01*
X130736694Y-81109584D01*
X130736688Y-81109583D01*
X130732222Y-81108703D01*
X130727669Y-81108476D01*
X130727666Y-81108476D01*
X130461338Y-81095217D01*
X130461332Y-81095217D01*
X130456769Y-81094990D01*
X130182222Y-81121185D01*
X129914332Y-81186737D01*
X129910106Y-81188449D01*
X129910102Y-81188450D01*
X129662944Y-81288559D01*
X129662939Y-81288562D01*
X129658711Y-81290274D01*
X129654776Y-81292578D01*
X129654770Y-81292581D01*
X129428509Y-81425063D01*
X129420713Y-81429628D01*
X129205325Y-81601878D01*
X129017058Y-81803416D01*
X128859856Y-82030022D01*
X128800168Y-82150000D01*
X128792975Y-82164459D01*
X128737013Y-82276946D01*
X128651101Y-82539018D01*
X128619651Y-82720155D01*
X128606398Y-82796488D01*
X128603922Y-82810746D01*
X128601109Y-82914703D01*
X128597668Y-83041886D01*
X128596462Y-83086439D01*
X127305724Y-83086439D01*
X127355266Y-81928552D01*
X127355477Y-81924875D01*
X127359286Y-81872059D01*
X127360031Y-81864732D01*
X127366912Y-81812283D01*
X127367444Y-81808636D01*
X127368824Y-81800072D01*
X127487805Y-81061380D01*
X127556389Y-80635577D01*
X127557028Y-80631952D01*
X127566964Y-80579985D01*
X127568559Y-80572791D01*
X127581533Y-80521425D01*
X127582487Y-80517868D01*
X127906974Y-79374967D01*
X127908031Y-79371440D01*
X127923977Y-79320940D01*
X127926393Y-79314000D01*
X127945276Y-79264487D01*
X127946614Y-79261126D01*
X127955765Y-79239090D01*
X128402276Y-78163768D01*
X128403730Y-78160409D01*
X128425450Y-78112139D01*
X128428666Y-78105516D01*
X128453156Y-78058621D01*
X128454908Y-78055381D01*
X129035460Y-77018728D01*
X129037308Y-77015539D01*
X129064519Y-76970119D01*
X129068487Y-76963915D01*
X129098283Y-76920195D01*
X129100401Y-76917182D01*
X129144796Y-76855965D01*
X137275000Y-76855965D01*
X137275000Y-77431885D01*
X137279475Y-77447124D01*
X137280865Y-77448329D01*
X137288548Y-77450000D01*
X137706885Y-77450000D01*
X137722124Y-77445525D01*
X137723329Y-77444135D01*
X137725000Y-77436452D01*
X137725000Y-76468115D01*
X137720525Y-76452876D01*
X137719135Y-76451671D01*
X137711452Y-76450000D01*
X137696450Y-76450000D01*
X137687091Y-76450699D01*
X137600523Y-76463714D01*
X137582722Y-76469191D01*
X137477745Y-76519600D01*
X137462333Y-76530074D01*
X137376822Y-76609120D01*
X137365172Y-76623661D01*
X137306684Y-76724357D01*
X137299825Y-76741680D01*
X137276622Y-76841785D01*
X137275000Y-76855965D01*
X129144796Y-76855965D01*
X129797961Y-75955310D01*
X129800139Y-75952397D01*
X129832474Y-75910448D01*
X129837126Y-75904765D01*
X129871836Y-75864800D01*
X129874292Y-75862054D01*
X130679267Y-74988182D01*
X130681802Y-74985509D01*
X130718798Y-74947631D01*
X130724096Y-74942515D01*
X130763228Y-74906876D01*
X130765988Y-74904435D01*
X130811938Y-74864982D01*
X131667449Y-74130423D01*
X131670242Y-74128096D01*
X131711432Y-74094770D01*
X131717264Y-74090328D01*
X131760310Y-74059483D01*
X131763333Y-74057383D01*
X132748906Y-73393857D01*
X132751989Y-73391846D01*
X132796765Y-73363566D01*
X132803095Y-73359822D01*
X132849478Y-73334191D01*
X132852652Y-73332498D01*
X133008118Y-73252428D01*
X135224500Y-73252428D01*
X135224500Y-75536501D01*
X135225082Y-75540747D01*
X135225082Y-75540753D01*
X135226464Y-75550841D01*
X135239963Y-75649385D01*
X135243375Y-75657269D01*
X135243375Y-75657270D01*
X135274917Y-75730158D01*
X135299845Y-75787764D01*
X135394734Y-75904942D01*
X135401736Y-75909918D01*
X135401738Y-75909920D01*
X135493533Y-75975155D01*
X135517639Y-75992286D01*
X135659505Y-76043361D01*
X135727428Y-76050500D01*
X136311501Y-76050500D01*
X136315747Y-76049918D01*
X136315753Y-76049918D01*
X136382408Y-76040787D01*
X136424385Y-76035037D01*
X136479275Y-76011284D01*
X136554880Y-75978567D01*
X136554882Y-75978566D01*
X136562764Y-75975155D01*
X136621353Y-75927711D01*
X136673264Y-75885674D01*
X136673265Y-75885673D01*
X136679942Y-75880266D01*
X136684918Y-75873264D01*
X136684920Y-75873262D01*
X136762310Y-75764363D01*
X136767286Y-75757361D01*
X136818361Y-75615495D01*
X136825500Y-75547572D01*
X136825500Y-73263499D01*
X136824435Y-73255718D01*
X136823984Y-73252428D01*
X140174500Y-73252428D01*
X140174500Y-75536501D01*
X140175082Y-75540747D01*
X140175082Y-75540753D01*
X140176464Y-75550841D01*
X140189963Y-75649385D01*
X140193375Y-75657269D01*
X140193375Y-75657270D01*
X140224917Y-75730158D01*
X140249845Y-75787764D01*
X140344734Y-75904942D01*
X140351736Y-75909918D01*
X140351738Y-75909920D01*
X140443533Y-75975155D01*
X140467639Y-75992286D01*
X140609505Y-76043361D01*
X140677428Y-76050500D01*
X141261501Y-76050500D01*
X141265747Y-76049918D01*
X141265753Y-76049918D01*
X141332408Y-76040787D01*
X141374385Y-76035037D01*
X141429275Y-76011284D01*
X141504880Y-75978567D01*
X141504882Y-75978566D01*
X141512764Y-75975155D01*
X141571353Y-75927711D01*
X141623264Y-75885674D01*
X141623265Y-75885673D01*
X141629942Y-75880266D01*
X141634918Y-75873264D01*
X141634920Y-75873262D01*
X141712310Y-75764363D01*
X141717286Y-75757361D01*
X141768361Y-75615495D01*
X141775500Y-75547572D01*
X141775500Y-73263499D01*
X141774435Y-73255718D01*
X141761203Y-73159129D01*
X141760037Y-73150615D01*
X141700155Y-73012236D01*
X141605266Y-72895058D01*
X141598264Y-72890082D01*
X141598262Y-72890080D01*
X141489363Y-72812690D01*
X141482361Y-72807714D01*
X141340495Y-72756639D01*
X141272572Y-72749500D01*
X140688499Y-72749500D01*
X140684253Y-72750082D01*
X140684247Y-72750082D01*
X140636382Y-72756639D01*
X140575615Y-72764963D01*
X140567731Y-72768375D01*
X140567730Y-72768375D01*
X140445120Y-72821433D01*
X140445118Y-72821434D01*
X140437236Y-72824845D01*
X140430558Y-72830253D01*
X140342284Y-72901736D01*
X140320058Y-72919734D01*
X140315082Y-72926736D01*
X140315080Y-72926738D01*
X140259066Y-73005558D01*
X140232714Y-73042639D01*
X140181639Y-73184505D01*
X140174500Y-73252428D01*
X136823984Y-73252428D01*
X136811203Y-73159129D01*
X136810037Y-73150615D01*
X136750155Y-73012236D01*
X136655266Y-72895058D01*
X136648264Y-72890082D01*
X136648262Y-72890080D01*
X136539363Y-72812690D01*
X136532361Y-72807714D01*
X136390495Y-72756639D01*
X136322572Y-72749500D01*
X135738499Y-72749500D01*
X135734253Y-72750082D01*
X135734247Y-72750082D01*
X135686382Y-72756639D01*
X135625615Y-72764963D01*
X135617731Y-72768375D01*
X135617730Y-72768375D01*
X135495120Y-72821433D01*
X135495118Y-72821434D01*
X135487236Y-72824845D01*
X135480558Y-72830253D01*
X135392284Y-72901736D01*
X135370058Y-72919734D01*
X135365082Y-72926736D01*
X135365080Y-72926738D01*
X135309066Y-73005558D01*
X135282714Y-73042639D01*
X135231639Y-73184505D01*
X135224500Y-73252428D01*
X133008118Y-73252428D01*
X133711661Y-72890080D01*
X133908932Y-72788479D01*
X133912229Y-72786841D01*
X133959993Y-72763981D01*
X133966730Y-72760996D01*
X134015722Y-72740978D01*
X134019151Y-72739635D01*
X135131684Y-72322569D01*
X135135149Y-72321327D01*
X135159518Y-72312995D01*
X135185245Y-72304199D01*
X135192278Y-72302022D01*
X135243270Y-72287857D01*
X135246824Y-72286925D01*
X135541514Y-72214269D01*
X136400450Y-72002500D01*
X136404038Y-72001671D01*
X136416542Y-71998973D01*
X136455787Y-71990506D01*
X136463006Y-71989168D01*
X136515327Y-71981045D01*
X136518949Y-71980537D01*
X137697876Y-71832649D01*
X137701496Y-71832248D01*
X137754221Y-71827194D01*
X137761555Y-71826707D01*
X137777459Y-71826117D01*
X137814451Y-71824745D01*
X137818132Y-71824662D01*
X138385143Y-71820208D01*
X139006273Y-71815330D01*
X139009896Y-71815355D01*
G37*
%TD.AperFunction*%
%TD*%
M02*
