%TF.GenerationSoftware,KiCad,Pcbnew,(5.99.0-9885-g7a8abcadd2)*%
%TF.CreationDate,2021-05-15T19:58:37-05:00*%
%TF.ProjectId,small as5047 encoder breakout,736d616c-6c20-4617-9335-30343720656e,rev?*%
%TF.SameCoordinates,Original*%
%TF.FileFunction,Legend,Top*%
%TF.FilePolarity,Positive*%
%FSLAX46Y46*%
G04 Gerber Fmt 4.6, Leading zero omitted, Abs format (unit mm)*
G04 Created by KiCad (PCBNEW (5.99.0-9885-g7a8abcadd2)) date 2021-05-15 19:58:37*
%MOMM*%
%LPD*%
G01*
G04 APERTURE LIST*
%ADD10C,0.250000*%
%ADD11C,0.200000*%
%ADD12C,0.150000*%
%ADD13C,0.130000*%
%ADD14C,0.050000*%
%ADD15C,0.400000*%
%ADD16C,0.120000*%
G04 APERTURE END LIST*
D10*
X144433214Y-87491857D02*
X144433214Y-86291857D01*
X144718928Y-86291857D01*
X144890357Y-86349000D01*
X145004642Y-86463285D01*
X145061785Y-86577571D01*
X145118928Y-86806142D01*
X145118928Y-86977571D01*
X145061785Y-87206142D01*
X145004642Y-87320428D01*
X144890357Y-87434714D01*
X144718928Y-87491857D01*
X144433214Y-87491857D01*
X145576071Y-87149000D02*
X146147500Y-87149000D01*
X145461785Y-87491857D02*
X145861785Y-86291857D01*
X146261785Y-87491857D01*
X146490357Y-86291857D02*
X147176071Y-86291857D01*
X146833214Y-87491857D02*
X146833214Y-86291857D01*
X147518928Y-87149000D02*
X148090357Y-87149000D01*
X147404642Y-87491857D02*
X147804642Y-86291857D01*
X148204642Y-87491857D01*
X144661785Y-88223857D02*
X144890357Y-88223857D01*
X145004642Y-88281000D01*
X145118928Y-88395285D01*
X145176071Y-88623857D01*
X145176071Y-89023857D01*
X145118928Y-89252428D01*
X145004642Y-89366714D01*
X144890357Y-89423857D01*
X144661785Y-89423857D01*
X144547500Y-89366714D01*
X144433214Y-89252428D01*
X144376071Y-89023857D01*
X144376071Y-88623857D01*
X144433214Y-88395285D01*
X144547500Y-88281000D01*
X144661785Y-88223857D01*
X145690357Y-88223857D02*
X145690357Y-89195285D01*
X145747500Y-89309571D01*
X145804642Y-89366714D01*
X145918928Y-89423857D01*
X146147500Y-89423857D01*
X146261785Y-89366714D01*
X146318928Y-89309571D01*
X146376071Y-89195285D01*
X146376071Y-88223857D01*
X146776071Y-88223857D02*
X147461785Y-88223857D01*
X147118928Y-89423857D02*
X147118928Y-88223857D01*
D11*
X142940476Y-85702380D02*
X142750000Y-85702380D01*
X142654761Y-85750000D01*
X142607142Y-85797619D01*
X142511904Y-85940476D01*
X142464285Y-86130952D01*
X142464285Y-86511904D01*
X142511904Y-86607142D01*
X142559523Y-86654761D01*
X142654761Y-86702380D01*
X142845238Y-86702380D01*
X142940476Y-86654761D01*
X142988095Y-86607142D01*
X143035714Y-86511904D01*
X143035714Y-86273809D01*
X142988095Y-86178571D01*
X142940476Y-86130952D01*
X142845238Y-86083333D01*
X142654761Y-86083333D01*
X142559523Y-86130952D01*
X142511904Y-86178571D01*
X142464285Y-86273809D01*
X128732142Y-78611666D02*
X129208333Y-78611666D01*
X128636904Y-78897380D02*
X128970238Y-77897380D01*
X129303571Y-78897380D01*
X129589285Y-78849761D02*
X129732142Y-78897380D01*
X129970238Y-78897380D01*
X130065476Y-78849761D01*
X130113095Y-78802142D01*
X130160714Y-78706904D01*
X130160714Y-78611666D01*
X130113095Y-78516428D01*
X130065476Y-78468809D01*
X129970238Y-78421190D01*
X129779761Y-78373571D01*
X129684523Y-78325952D01*
X129636904Y-78278333D01*
X129589285Y-78183095D01*
X129589285Y-78087857D01*
X129636904Y-77992619D01*
X129684523Y-77945000D01*
X129779761Y-77897380D01*
X130017857Y-77897380D01*
X130160714Y-77945000D01*
X131065476Y-77897380D02*
X130589285Y-77897380D01*
X130541666Y-78373571D01*
X130589285Y-78325952D01*
X130684523Y-78278333D01*
X130922619Y-78278333D01*
X131017857Y-78325952D01*
X131065476Y-78373571D01*
X131113095Y-78468809D01*
X131113095Y-78706904D01*
X131065476Y-78802142D01*
X131017857Y-78849761D01*
X130922619Y-78897380D01*
X130684523Y-78897380D01*
X130589285Y-78849761D01*
X130541666Y-78802142D01*
X131732142Y-77897380D02*
X131827380Y-77897380D01*
X131922619Y-77945000D01*
X131970238Y-77992619D01*
X132017857Y-78087857D01*
X132065476Y-78278333D01*
X132065476Y-78516428D01*
X132017857Y-78706904D01*
X131970238Y-78802142D01*
X131922619Y-78849761D01*
X131827380Y-78897380D01*
X131732142Y-78897380D01*
X131636904Y-78849761D01*
X131589285Y-78802142D01*
X131541666Y-78706904D01*
X131494047Y-78516428D01*
X131494047Y-78278333D01*
X131541666Y-78087857D01*
X131589285Y-77992619D01*
X131636904Y-77945000D01*
X131732142Y-77897380D01*
X132922619Y-78230714D02*
X132922619Y-78897380D01*
X132684523Y-77849761D02*
X132446428Y-78564047D01*
X133065476Y-78564047D01*
X133351190Y-77897380D02*
X134017857Y-77897380D01*
X133589285Y-78897380D01*
X134398809Y-78897380D02*
X134398809Y-77897380D01*
X134636904Y-77897380D01*
X134779761Y-77945000D01*
X134875000Y-78040238D01*
X134922619Y-78135476D01*
X134970238Y-78325952D01*
X134970238Y-78468809D01*
X134922619Y-78659285D01*
X134875000Y-78754523D01*
X134779761Y-78849761D01*
X134636904Y-78897380D01*
X134398809Y-78897380D01*
X136113095Y-77849761D02*
X135255952Y-79135476D01*
X136446428Y-78897380D02*
X136446428Y-77897380D01*
X136827380Y-77897380D01*
X136922619Y-77945000D01*
X136970238Y-77992619D01*
X137017857Y-78087857D01*
X137017857Y-78230714D01*
X136970238Y-78325952D01*
X136922619Y-78373571D01*
X136827380Y-78421190D01*
X136446428Y-78421190D01*
X130160714Y-79983571D02*
X130303571Y-80031190D01*
X130351190Y-80078809D01*
X130398809Y-80174047D01*
X130398809Y-80316904D01*
X130351190Y-80412142D01*
X130303571Y-80459761D01*
X130208333Y-80507380D01*
X129827380Y-80507380D01*
X129827380Y-79507380D01*
X130160714Y-79507380D01*
X130255952Y-79555000D01*
X130303571Y-79602619D01*
X130351190Y-79697857D01*
X130351190Y-79793095D01*
X130303571Y-79888333D01*
X130255952Y-79935952D01*
X130160714Y-79983571D01*
X129827380Y-79983571D01*
X130827380Y-80507380D02*
X130827380Y-79840714D01*
X130827380Y-80031190D02*
X130875000Y-79935952D01*
X130922619Y-79888333D01*
X131017857Y-79840714D01*
X131113095Y-79840714D01*
X131827380Y-80459761D02*
X131732142Y-80507380D01*
X131541666Y-80507380D01*
X131446428Y-80459761D01*
X131398809Y-80364523D01*
X131398809Y-79983571D01*
X131446428Y-79888333D01*
X131541666Y-79840714D01*
X131732142Y-79840714D01*
X131827380Y-79888333D01*
X131875000Y-79983571D01*
X131875000Y-80078809D01*
X131398809Y-80174047D01*
X132732142Y-80507380D02*
X132732142Y-79983571D01*
X132684523Y-79888333D01*
X132589285Y-79840714D01*
X132398809Y-79840714D01*
X132303571Y-79888333D01*
X132732142Y-80459761D02*
X132636904Y-80507380D01*
X132398809Y-80507380D01*
X132303571Y-80459761D01*
X132255952Y-80364523D01*
X132255952Y-80269285D01*
X132303571Y-80174047D01*
X132398809Y-80126428D01*
X132636904Y-80126428D01*
X132732142Y-80078809D01*
X133208333Y-80507380D02*
X133208333Y-79507380D01*
X133303571Y-80126428D02*
X133589285Y-80507380D01*
X133589285Y-79840714D02*
X133208333Y-80221666D01*
X134160714Y-80507380D02*
X134065476Y-80459761D01*
X134017857Y-80412142D01*
X133970238Y-80316904D01*
X133970238Y-80031190D01*
X134017857Y-79935952D01*
X134065476Y-79888333D01*
X134160714Y-79840714D01*
X134303571Y-79840714D01*
X134398809Y-79888333D01*
X134446428Y-79935952D01*
X134494047Y-80031190D01*
X134494047Y-80316904D01*
X134446428Y-80412142D01*
X134398809Y-80459761D01*
X134303571Y-80507380D01*
X134160714Y-80507380D01*
X135351190Y-79840714D02*
X135351190Y-80507380D01*
X134922619Y-79840714D02*
X134922619Y-80364523D01*
X134970238Y-80459761D01*
X135065476Y-80507380D01*
X135208333Y-80507380D01*
X135303571Y-80459761D01*
X135351190Y-80412142D01*
X135684523Y-79840714D02*
X136065476Y-79840714D01*
X135827380Y-79507380D02*
X135827380Y-80364523D01*
X135875000Y-80459761D01*
X135970238Y-80507380D01*
X136065476Y-80507380D01*
D10*
X142026785Y-75160857D02*
X142712500Y-75160857D01*
X142369642Y-76360857D02*
X142369642Y-75160857D01*
X143112500Y-75732285D02*
X143512500Y-75732285D01*
X143683928Y-76360857D02*
X143112500Y-76360857D01*
X143112500Y-75160857D01*
X143683928Y-75160857D01*
X144198214Y-76360857D02*
X144198214Y-75160857D01*
X144598214Y-76018000D01*
X144998214Y-75160857D01*
X144998214Y-76360857D01*
X145569642Y-76360857D02*
X145569642Y-75160857D01*
X146026785Y-75160857D01*
X146141071Y-75218000D01*
X146198214Y-75275142D01*
X146255357Y-75389428D01*
X146255357Y-75560857D01*
X146198214Y-75675142D01*
X146141071Y-75732285D01*
X146026785Y-75789428D01*
X145569642Y-75789428D01*
X142826785Y-78292857D02*
X142141071Y-78292857D01*
X142483928Y-78292857D02*
X142483928Y-77092857D01*
X142369642Y-77264285D01*
X142255357Y-77378571D01*
X142141071Y-77435714D01*
X143569642Y-77092857D02*
X143683928Y-77092857D01*
X143798214Y-77150000D01*
X143855357Y-77207142D01*
X143912500Y-77321428D01*
X143969642Y-77550000D01*
X143969642Y-77835714D01*
X143912500Y-78064285D01*
X143855357Y-78178571D01*
X143798214Y-78235714D01*
X143683928Y-78292857D01*
X143569642Y-78292857D01*
X143455357Y-78235714D01*
X143398214Y-78178571D01*
X143341071Y-78064285D01*
X143283928Y-77835714D01*
X143283928Y-77550000D01*
X143341071Y-77321428D01*
X143398214Y-77207142D01*
X143455357Y-77150000D01*
X143569642Y-77092857D01*
X144483928Y-78292857D02*
X144483928Y-77092857D01*
X145169642Y-78292857D02*
X144655357Y-77607142D01*
X145169642Y-77092857D02*
X144483928Y-77778571D01*
X145626785Y-78292857D02*
X145912500Y-78292857D01*
X145912500Y-78064285D01*
X145798214Y-78007142D01*
X145683928Y-77892857D01*
X145626785Y-77721428D01*
X145626785Y-77435714D01*
X145683928Y-77264285D01*
X145798214Y-77150000D01*
X145969642Y-77092857D01*
X146198214Y-77092857D01*
X146369642Y-77150000D01*
X146483928Y-77264285D01*
X146541071Y-77435714D01*
X146541071Y-77721428D01*
X146483928Y-77892857D01*
X146369642Y-78007142D01*
X146255357Y-78064285D01*
X146255357Y-78292857D01*
X146541071Y-78292857D01*
X142198214Y-80224857D02*
X142198214Y-79024857D01*
X142883928Y-80224857D01*
X142883928Y-79024857D01*
X143283928Y-79024857D02*
X143969642Y-79024857D01*
X143626785Y-80224857D02*
X143626785Y-79024857D01*
X145055357Y-80110571D02*
X144998214Y-80167714D01*
X144826785Y-80224857D01*
X144712500Y-80224857D01*
X144541071Y-80167714D01*
X144426785Y-80053428D01*
X144369642Y-79939142D01*
X144312500Y-79710571D01*
X144312500Y-79539142D01*
X144369642Y-79310571D01*
X144426785Y-79196285D01*
X144541071Y-79082000D01*
X144712500Y-79024857D01*
X144826785Y-79024857D01*
X144998214Y-79082000D01*
X145055357Y-79139142D01*
D11*
X133535714Y-86702380D02*
X132964285Y-86702380D01*
X133250000Y-86702380D02*
X133250000Y-85702380D01*
X133154761Y-85845238D01*
X133059523Y-85940476D01*
X132964285Y-85988095D01*
X134166666Y-84952380D02*
X134166666Y-83952380D01*
X134547619Y-83952380D01*
X134642857Y-84000000D01*
X134690476Y-84047619D01*
X134738095Y-84142857D01*
X134738095Y-84285714D01*
X134690476Y-84380952D01*
X134642857Y-84428571D01*
X134547619Y-84476190D01*
X134166666Y-84476190D01*
X135071428Y-83952380D02*
X135309523Y-84952380D01*
X135500000Y-84238095D01*
X135690476Y-84952380D01*
X135928571Y-83952380D01*
X136880952Y-84952380D02*
X136547619Y-84476190D01*
X136309523Y-84952380D02*
X136309523Y-83952380D01*
X136690476Y-83952380D01*
X136785714Y-84000000D01*
X136833333Y-84047619D01*
X136880952Y-84142857D01*
X136880952Y-84285714D01*
X136833333Y-84380952D01*
X136785714Y-84428571D01*
X136690476Y-84476190D01*
X136309523Y-84476190D01*
D12*
%TO.C,J2*%
X131416666Y-87452380D02*
X131416666Y-88166666D01*
X131369047Y-88309523D01*
X131273809Y-88404761D01*
X131130952Y-88452380D01*
X131035714Y-88452380D01*
X131845238Y-87547619D02*
X131892857Y-87500000D01*
X131988095Y-87452380D01*
X132226190Y-87452380D01*
X132321428Y-87500000D01*
X132369047Y-87547619D01*
X132416666Y-87642857D01*
X132416666Y-87738095D01*
X132369047Y-87880952D01*
X131797619Y-88452380D01*
X132416666Y-88452380D01*
%TO.C,J1*%
X133916666Y-73952380D02*
X133916666Y-74666666D01*
X133869047Y-74809523D01*
X133773809Y-74904761D01*
X133630952Y-74952380D01*
X133535714Y-74952380D01*
X134916666Y-74952380D02*
X134345238Y-74952380D01*
X134630952Y-74952380D02*
X134630952Y-73952380D01*
X134535714Y-74095238D01*
X134440476Y-74190476D01*
X134345238Y-74238095D01*
D13*
%TO.C,R1*%
X136890000Y-81600000D02*
X136890000Y-80900000D01*
X138110000Y-80900000D02*
X138110000Y-81600000D01*
D14*
X137925000Y-80875000D02*
X137075000Y-80875000D01*
X137075000Y-80875000D02*
X137075000Y-81625000D01*
X137075000Y-81625000D02*
X137925000Y-81625000D01*
X137925000Y-81625000D02*
X137925000Y-81000000D01*
X137925000Y-81000000D02*
X137925000Y-80875000D01*
G36*
X137925000Y-81625000D02*
G01*
X137075000Y-81625000D01*
X137075000Y-80875000D01*
X137925000Y-80875000D01*
X137925000Y-81625000D01*
G37*
X137925000Y-81625000D02*
X137075000Y-81625000D01*
X137075000Y-80875000D01*
X137925000Y-80875000D01*
X137925000Y-81625000D01*
D13*
%TO.C,C1*%
X140850000Y-82610000D02*
X140150000Y-82610000D01*
X140150000Y-81390000D02*
X140850000Y-81390000D01*
D15*
X140700000Y-82000000D02*
G75*
G03*
X140700000Y-82000000I-200000J0D01*
G01*
D13*
%TO.C,C2*%
X140850000Y-85110000D02*
X140150000Y-85110000D01*
X140150000Y-83890000D02*
X140850000Y-83890000D01*
D15*
X140700000Y-84500000D02*
G75*
G03*
X140700000Y-84500000I-200000J0D01*
G01*
D16*
%TO.C,J2*%
X143985000Y-91860000D02*
X142185000Y-91860000D01*
X143985000Y-90260000D02*
X143985000Y-91860000D01*
X134815000Y-91860000D02*
X134815000Y-92800000D01*
X134285000Y-87390000D02*
X142715000Y-87390000D01*
X133015000Y-91860000D02*
X134815000Y-91860000D01*
X133015000Y-90260000D02*
X133015000Y-91860000D01*
D13*
%TO.C,D1*%
X135800000Y-82208430D02*
X135500000Y-82808430D01*
X135500000Y-82808430D02*
X135200000Y-82208430D01*
X135200000Y-82808430D02*
X135800000Y-82808430D01*
X134890000Y-82858430D02*
X134890000Y-82158430D01*
X135200000Y-82208430D02*
X135800000Y-82208430D01*
X136110000Y-82158430D02*
X136110000Y-82858430D01*
D16*
%TO.C,D2*%
X138875000Y-80850000D02*
X141425000Y-80850000D01*
X138875000Y-79150000D02*
X138875000Y-80850000D01*
X138875000Y-79150000D02*
X141425000Y-79150000D01*
%TO.C,J1*%
X135515000Y-76010000D02*
X135515000Y-77460000D01*
X140215000Y-73190000D02*
X136785000Y-73190000D01*
X141485000Y-77460000D02*
X139685000Y-77460000D01*
X139685000Y-77460000D02*
X139685000Y-78450000D01*
X135515000Y-77460000D02*
X137315000Y-77460000D01*
X141485000Y-76010000D02*
X141485000Y-77460000D01*
%TO.C,J3*%
X134285000Y-91460000D02*
X142715000Y-91460000D01*
X143985000Y-88640000D02*
X143985000Y-87190000D01*
X143985000Y-87190000D02*
X142185000Y-87190000D01*
X134815000Y-87190000D02*
X134815000Y-86200000D01*
X133015000Y-88640000D02*
X133015000Y-87190000D01*
X133015000Y-87190000D02*
X134815000Y-87190000D01*
%TD*%
M02*
