%TF.GenerationSoftware,KiCad,Pcbnew,(5.99.0-9885-g7a8abcadd2)*%
%TF.CreationDate,2021-05-15T19:58:37-05:00*%
%TF.ProjectId,small as5047 encoder breakout,736d616c-6c20-4617-9335-30343720656e,rev?*%
%TF.SameCoordinates,Original*%
%TF.FileFunction,Legend,Bot*%
%TF.FilePolarity,Positive*%
%FSLAX46Y46*%
G04 Gerber Fmt 4.6, Leading zero omitted, Abs format (unit mm)*
G04 Created by KiCad (PCBNEW (5.99.0-9885-g7a8abcadd2)) date 2021-05-15 19:58:37*
%MOMM*%
%LPD*%
G01*
G04 APERTURE LIST*
%ADD10C,0.150000*%
%ADD11C,0.200000*%
%ADD12C,0.120000*%
G04 APERTURE END LIST*
D10*
X145000000Y-81500000D02*
X143000000Y-79500000D01*
X144500000Y-86000000D02*
X144500000Y-92500000D01*
X133000000Y-86000000D02*
X144500000Y-86000000D01*
X132000000Y-81000000D02*
X133000000Y-80000000D01*
X133000000Y-93000000D02*
X133000000Y-86000000D01*
D11*
X142642857Y-74126666D02*
X142166666Y-74126666D01*
X142738095Y-74412380D02*
X142404761Y-73412380D01*
X142071428Y-74412380D01*
X141785714Y-74364761D02*
X141642857Y-74412380D01*
X141404761Y-74412380D01*
X141309523Y-74364761D01*
X141261904Y-74317142D01*
X141214285Y-74221904D01*
X141214285Y-74126666D01*
X141261904Y-74031428D01*
X141309523Y-73983809D01*
X141404761Y-73936190D01*
X141595238Y-73888571D01*
X141690476Y-73840952D01*
X141738095Y-73793333D01*
X141785714Y-73698095D01*
X141785714Y-73602857D01*
X141738095Y-73507619D01*
X141690476Y-73460000D01*
X141595238Y-73412380D01*
X141357142Y-73412380D01*
X141214285Y-73460000D01*
X140309523Y-73412380D02*
X140785714Y-73412380D01*
X140833333Y-73888571D01*
X140785714Y-73840952D01*
X140690476Y-73793333D01*
X140452380Y-73793333D01*
X140357142Y-73840952D01*
X140309523Y-73888571D01*
X140261904Y-73983809D01*
X140261904Y-74221904D01*
X140309523Y-74317142D01*
X140357142Y-74364761D01*
X140452380Y-74412380D01*
X140690476Y-74412380D01*
X140785714Y-74364761D01*
X140833333Y-74317142D01*
X139642857Y-73412380D02*
X139547619Y-73412380D01*
X139452380Y-73460000D01*
X139404761Y-73507619D01*
X139357142Y-73602857D01*
X139309523Y-73793333D01*
X139309523Y-74031428D01*
X139357142Y-74221904D01*
X139404761Y-74317142D01*
X139452380Y-74364761D01*
X139547619Y-74412380D01*
X139642857Y-74412380D01*
X139738095Y-74364761D01*
X139785714Y-74317142D01*
X139833333Y-74221904D01*
X139880952Y-74031428D01*
X139880952Y-73793333D01*
X139833333Y-73602857D01*
X139785714Y-73507619D01*
X139738095Y-73460000D01*
X139642857Y-73412380D01*
X138452380Y-73745714D02*
X138452380Y-74412380D01*
X138690476Y-73364761D02*
X138928571Y-74079047D01*
X138309523Y-74079047D01*
X138023809Y-73412380D02*
X137357142Y-73412380D01*
X137785714Y-74412380D01*
X136976190Y-74412380D02*
X136976190Y-73412380D01*
X136738095Y-73412380D01*
X136595238Y-73460000D01*
X136500000Y-73555238D01*
X136452380Y-73650476D01*
X136404761Y-73840952D01*
X136404761Y-73983809D01*
X136452380Y-74174285D01*
X136500000Y-74269523D01*
X136595238Y-74364761D01*
X136738095Y-74412380D01*
X136976190Y-74412380D01*
X135261904Y-73364761D02*
X136119047Y-74650476D01*
X134928571Y-74412380D02*
X134928571Y-73412380D01*
X134547619Y-73412380D01*
X134452380Y-73460000D01*
X134404761Y-73507619D01*
X134357142Y-73602857D01*
X134357142Y-73745714D01*
X134404761Y-73840952D01*
X134452380Y-73888571D01*
X134547619Y-73936190D01*
X134928571Y-73936190D01*
X141214285Y-75498571D02*
X141071428Y-75546190D01*
X141023809Y-75593809D01*
X140976190Y-75689047D01*
X140976190Y-75831904D01*
X141023809Y-75927142D01*
X141071428Y-75974761D01*
X141166666Y-76022380D01*
X141547619Y-76022380D01*
X141547619Y-75022380D01*
X141214285Y-75022380D01*
X141119047Y-75070000D01*
X141071428Y-75117619D01*
X141023809Y-75212857D01*
X141023809Y-75308095D01*
X141071428Y-75403333D01*
X141119047Y-75450952D01*
X141214285Y-75498571D01*
X141547619Y-75498571D01*
X140547619Y-76022380D02*
X140547619Y-75355714D01*
X140547619Y-75546190D02*
X140500000Y-75450952D01*
X140452380Y-75403333D01*
X140357142Y-75355714D01*
X140261904Y-75355714D01*
X139547619Y-75974761D02*
X139642857Y-76022380D01*
X139833333Y-76022380D01*
X139928571Y-75974761D01*
X139976190Y-75879523D01*
X139976190Y-75498571D01*
X139928571Y-75403333D01*
X139833333Y-75355714D01*
X139642857Y-75355714D01*
X139547619Y-75403333D01*
X139500000Y-75498571D01*
X139500000Y-75593809D01*
X139976190Y-75689047D01*
X138642857Y-76022380D02*
X138642857Y-75498571D01*
X138690476Y-75403333D01*
X138785714Y-75355714D01*
X138976190Y-75355714D01*
X139071428Y-75403333D01*
X138642857Y-75974761D02*
X138738095Y-76022380D01*
X138976190Y-76022380D01*
X139071428Y-75974761D01*
X139119047Y-75879523D01*
X139119047Y-75784285D01*
X139071428Y-75689047D01*
X138976190Y-75641428D01*
X138738095Y-75641428D01*
X138642857Y-75593809D01*
X138166666Y-76022380D02*
X138166666Y-75022380D01*
X138071428Y-75641428D02*
X137785714Y-76022380D01*
X137785714Y-75355714D02*
X138166666Y-75736666D01*
X137214285Y-76022380D02*
X137309523Y-75974761D01*
X137357142Y-75927142D01*
X137404761Y-75831904D01*
X137404761Y-75546190D01*
X137357142Y-75450952D01*
X137309523Y-75403333D01*
X137214285Y-75355714D01*
X137071428Y-75355714D01*
X136976190Y-75403333D01*
X136928571Y-75450952D01*
X136880952Y-75546190D01*
X136880952Y-75831904D01*
X136928571Y-75927142D01*
X136976190Y-75974761D01*
X137071428Y-76022380D01*
X137214285Y-76022380D01*
X136023809Y-75355714D02*
X136023809Y-76022380D01*
X136452380Y-75355714D02*
X136452380Y-75879523D01*
X136404761Y-75974761D01*
X136309523Y-76022380D01*
X136166666Y-76022380D01*
X136071428Y-75974761D01*
X136023809Y-75927142D01*
X135690476Y-75355714D02*
X135309523Y-75355714D01*
X135547619Y-75022380D02*
X135547619Y-75879523D01*
X135500000Y-75974761D01*
X135404761Y-76022380D01*
X135309523Y-76022380D01*
X142380952Y-77632380D02*
X142380952Y-76632380D01*
X142380952Y-77108571D02*
X141809523Y-77108571D01*
X141809523Y-77632380D02*
X141809523Y-76632380D01*
X141190476Y-77632380D02*
X141285714Y-77584761D01*
X141333333Y-77537142D01*
X141380952Y-77441904D01*
X141380952Y-77156190D01*
X141333333Y-77060952D01*
X141285714Y-77013333D01*
X141190476Y-76965714D01*
X141047619Y-76965714D01*
X140952380Y-77013333D01*
X140904761Y-77060952D01*
X140857142Y-77156190D01*
X140857142Y-77441904D01*
X140904761Y-77537142D01*
X140952380Y-77584761D01*
X141047619Y-77632380D01*
X141190476Y-77632380D01*
X140285714Y-77632380D02*
X140380952Y-77584761D01*
X140428571Y-77489523D01*
X140428571Y-76632380D01*
X139523809Y-77584761D02*
X139619047Y-77632380D01*
X139809523Y-77632380D01*
X139904761Y-77584761D01*
X139952380Y-77489523D01*
X139952380Y-77108571D01*
X139904761Y-77013333D01*
X139809523Y-76965714D01*
X139619047Y-76965714D01*
X139523809Y-77013333D01*
X139476190Y-77108571D01*
X139476190Y-77203809D01*
X139952380Y-77299047D01*
X139095238Y-77584761D02*
X139000000Y-77632380D01*
X138809523Y-77632380D01*
X138714285Y-77584761D01*
X138666666Y-77489523D01*
X138666666Y-77441904D01*
X138714285Y-77346666D01*
X138809523Y-77299047D01*
X138952380Y-77299047D01*
X139047619Y-77251428D01*
X139095238Y-77156190D01*
X139095238Y-77108571D01*
X139047619Y-77013333D01*
X138952380Y-76965714D01*
X138809523Y-76965714D01*
X138714285Y-77013333D01*
X137476190Y-77632380D02*
X137476190Y-76632380D01*
X137142857Y-77346666D01*
X136809523Y-76632380D01*
X136809523Y-77632380D01*
X136428571Y-76632380D02*
X135809523Y-76632380D01*
X136142857Y-77013333D01*
X136000000Y-77013333D01*
X135904761Y-77060952D01*
X135857142Y-77108571D01*
X135809523Y-77203809D01*
X135809523Y-77441904D01*
X135857142Y-77537142D01*
X135904761Y-77584761D01*
X136000000Y-77632380D01*
X136285714Y-77632380D01*
X136380952Y-77584761D01*
X136428571Y-77537142D01*
X135333333Y-77584761D02*
X135333333Y-77632380D01*
X135380952Y-77727619D01*
X135428571Y-77775238D01*
X143285714Y-79242380D02*
X143857142Y-79242380D01*
X143571428Y-79242380D02*
X143571428Y-78242380D01*
X143666666Y-78385238D01*
X143761904Y-78480476D01*
X143857142Y-78528095D01*
X142428571Y-78242380D02*
X142619047Y-78242380D01*
X142714285Y-78290000D01*
X142761904Y-78337619D01*
X142857142Y-78480476D01*
X142904761Y-78670952D01*
X142904761Y-79051904D01*
X142857142Y-79147142D01*
X142809523Y-79194761D01*
X142714285Y-79242380D01*
X142523809Y-79242380D01*
X142428571Y-79194761D01*
X142380952Y-79147142D01*
X142333333Y-79051904D01*
X142333333Y-78813809D01*
X142380952Y-78718571D01*
X142428571Y-78670952D01*
X142523809Y-78623333D01*
X142714285Y-78623333D01*
X142809523Y-78670952D01*
X142857142Y-78718571D01*
X142904761Y-78813809D01*
X141904761Y-79242380D02*
X141904761Y-78575714D01*
X141904761Y-78670952D02*
X141857142Y-78623333D01*
X141761904Y-78575714D01*
X141619047Y-78575714D01*
X141523809Y-78623333D01*
X141476190Y-78718571D01*
X141476190Y-79242380D01*
X141476190Y-78718571D02*
X141428571Y-78623333D01*
X141333333Y-78575714D01*
X141190476Y-78575714D01*
X141095238Y-78623333D01*
X141047619Y-78718571D01*
X141047619Y-79242380D01*
X140571428Y-79242380D02*
X140571428Y-78575714D01*
X140571428Y-78670952D02*
X140523809Y-78623333D01*
X140428571Y-78575714D01*
X140285714Y-78575714D01*
X140190476Y-78623333D01*
X140142857Y-78718571D01*
X140142857Y-79242380D01*
X140142857Y-78718571D02*
X140095238Y-78623333D01*
X140000000Y-78575714D01*
X139857142Y-78575714D01*
X139761904Y-78623333D01*
X139714285Y-78718571D01*
X139714285Y-79242380D01*
X138523809Y-79194761D02*
X138428571Y-79242380D01*
X138238095Y-79242380D01*
X138142857Y-79194761D01*
X138095238Y-79099523D01*
X138095238Y-79051904D01*
X138142857Y-78956666D01*
X138238095Y-78909047D01*
X138380952Y-78909047D01*
X138476190Y-78861428D01*
X138523809Y-78766190D01*
X138523809Y-78718571D01*
X138476190Y-78623333D01*
X138380952Y-78575714D01*
X138238095Y-78575714D01*
X138142857Y-78623333D01*
X137666666Y-78575714D02*
X137666666Y-79575714D01*
X137666666Y-78623333D02*
X137571428Y-78575714D01*
X137380952Y-78575714D01*
X137285714Y-78623333D01*
X137238095Y-78670952D01*
X137190476Y-78766190D01*
X137190476Y-79051904D01*
X137238095Y-79147142D01*
X137285714Y-79194761D01*
X137380952Y-79242380D01*
X137571428Y-79242380D01*
X137666666Y-79194761D01*
X136333333Y-79242380D02*
X136333333Y-78718571D01*
X136380952Y-78623333D01*
X136476190Y-78575714D01*
X136666666Y-78575714D01*
X136761904Y-78623333D01*
X136333333Y-79194761D02*
X136428571Y-79242380D01*
X136666666Y-79242380D01*
X136761904Y-79194761D01*
X136809523Y-79099523D01*
X136809523Y-79004285D01*
X136761904Y-78909047D01*
X136666666Y-78861428D01*
X136428571Y-78861428D01*
X136333333Y-78813809D01*
X135428571Y-79194761D02*
X135523809Y-79242380D01*
X135714285Y-79242380D01*
X135809523Y-79194761D01*
X135857142Y-79147142D01*
X135904761Y-79051904D01*
X135904761Y-78766190D01*
X135857142Y-78670952D01*
X135809523Y-78623333D01*
X135714285Y-78575714D01*
X135523809Y-78575714D01*
X135428571Y-78623333D01*
X135000000Y-79242380D02*
X135000000Y-78575714D01*
X135000000Y-78242380D02*
X135047619Y-78290000D01*
X135000000Y-78337619D01*
X134952380Y-78290000D01*
X135000000Y-78242380D01*
X135000000Y-78337619D01*
X134523809Y-78575714D02*
X134523809Y-79242380D01*
X134523809Y-78670952D02*
X134476190Y-78623333D01*
X134380952Y-78575714D01*
X134238095Y-78575714D01*
X134142857Y-78623333D01*
X134095238Y-78718571D01*
X134095238Y-79242380D01*
X133190476Y-78575714D02*
X133190476Y-79385238D01*
X133238095Y-79480476D01*
X133285714Y-79528095D01*
X133380952Y-79575714D01*
X133523809Y-79575714D01*
X133619047Y-79528095D01*
X133190476Y-79194761D02*
X133285714Y-79242380D01*
X133476190Y-79242380D01*
X133571428Y-79194761D01*
X133619047Y-79147142D01*
X133666666Y-79051904D01*
X133666666Y-78766190D01*
X133619047Y-78670952D01*
X133571428Y-78623333D01*
X133476190Y-78575714D01*
X133285714Y-78575714D01*
X133190476Y-78623333D01*
X141163571Y-91307500D02*
X141163571Y-90545595D01*
X141782619Y-90212261D02*
X141782619Y-89640833D01*
X140782619Y-89926547D02*
X141782619Y-89926547D01*
X141306428Y-89307500D02*
X141306428Y-88974166D01*
X140782619Y-88831309D02*
X140782619Y-89307500D01*
X141782619Y-89307500D01*
X141782619Y-88831309D01*
X140782619Y-88402738D02*
X141782619Y-88402738D01*
X141068333Y-88069404D01*
X141782619Y-87736071D01*
X140782619Y-87736071D01*
X140782619Y-87259880D02*
X141782619Y-87259880D01*
X141782619Y-86878928D01*
X141735000Y-86783690D01*
X141687380Y-86736071D01*
X141592142Y-86688452D01*
X141449285Y-86688452D01*
X141354047Y-86736071D01*
X141306428Y-86783690D01*
X141258809Y-86878928D01*
X141258809Y-87259880D01*
X139553571Y-91307500D02*
X139553571Y-90545595D01*
X139220238Y-90117023D02*
X139172619Y-89974166D01*
X139172619Y-89736071D01*
X139220238Y-89640833D01*
X139267857Y-89593214D01*
X139363095Y-89545595D01*
X139458333Y-89545595D01*
X139553571Y-89593214D01*
X139601190Y-89640833D01*
X139648809Y-89736071D01*
X139696428Y-89926547D01*
X139744047Y-90021785D01*
X139791666Y-90069404D01*
X139886904Y-90117023D01*
X139982142Y-90117023D01*
X140077380Y-90069404D01*
X140125000Y-90021785D01*
X140172619Y-89926547D01*
X140172619Y-89688452D01*
X140125000Y-89545595D01*
X139267857Y-88545595D02*
X139220238Y-88593214D01*
X139172619Y-88736071D01*
X139172619Y-88831309D01*
X139220238Y-88974166D01*
X139315476Y-89069404D01*
X139410714Y-89117023D01*
X139601190Y-89164642D01*
X139744047Y-89164642D01*
X139934523Y-89117023D01*
X140029761Y-89069404D01*
X140125000Y-88974166D01*
X140172619Y-88831309D01*
X140172619Y-88736071D01*
X140125000Y-88593214D01*
X140077380Y-88545595D01*
X139172619Y-88117023D02*
X140172619Y-88117023D01*
X139172619Y-87545595D02*
X139744047Y-87974166D01*
X140172619Y-87545595D02*
X139601190Y-88117023D01*
X137943571Y-91307500D02*
X137943571Y-90545595D01*
X137562619Y-90069404D02*
X138562619Y-90069404D01*
X137848333Y-89736071D01*
X138562619Y-89402738D01*
X137562619Y-89402738D01*
X137562619Y-88926547D02*
X138562619Y-88926547D01*
X137610238Y-88497976D02*
X137562619Y-88355119D01*
X137562619Y-88117023D01*
X137610238Y-88021785D01*
X137657857Y-87974166D01*
X137753095Y-87926547D01*
X137848333Y-87926547D01*
X137943571Y-87974166D01*
X137991190Y-88021785D01*
X138038809Y-88117023D01*
X138086428Y-88307500D01*
X138134047Y-88402738D01*
X138181666Y-88450357D01*
X138276904Y-88497976D01*
X138372142Y-88497976D01*
X138467380Y-88450357D01*
X138515000Y-88402738D01*
X138562619Y-88307500D01*
X138562619Y-88069404D01*
X138515000Y-87926547D01*
X138562619Y-87307500D02*
X138562619Y-87117023D01*
X138515000Y-87021785D01*
X138419761Y-86926547D01*
X138229285Y-86878928D01*
X137895952Y-86878928D01*
X137705476Y-86926547D01*
X137610238Y-87021785D01*
X137562619Y-87117023D01*
X137562619Y-87307500D01*
X137610238Y-87402738D01*
X137705476Y-87497976D01*
X137895952Y-87545595D01*
X138229285Y-87545595D01*
X138419761Y-87497976D01*
X138515000Y-87402738D01*
X138562619Y-87307500D01*
X136333571Y-91307500D02*
X136333571Y-90545595D01*
X136047857Y-89497976D02*
X136000238Y-89545595D01*
X135952619Y-89688452D01*
X135952619Y-89783690D01*
X136000238Y-89926547D01*
X136095476Y-90021785D01*
X136190714Y-90069404D01*
X136381190Y-90117023D01*
X136524047Y-90117023D01*
X136714523Y-90069404D01*
X136809761Y-90021785D01*
X136905000Y-89926547D01*
X136952619Y-89783690D01*
X136952619Y-89688452D01*
X136905000Y-89545595D01*
X136857380Y-89497976D01*
X136000238Y-89117023D02*
X135952619Y-88974166D01*
X135952619Y-88736071D01*
X136000238Y-88640833D01*
X136047857Y-88593214D01*
X136143095Y-88545595D01*
X136238333Y-88545595D01*
X136333571Y-88593214D01*
X136381190Y-88640833D01*
X136428809Y-88736071D01*
X136476428Y-88926547D01*
X136524047Y-89021785D01*
X136571666Y-89069404D01*
X136666904Y-89117023D01*
X136762142Y-89117023D01*
X136857380Y-89069404D01*
X136905000Y-89021785D01*
X136952619Y-88926547D01*
X136952619Y-88688452D01*
X136905000Y-88545595D01*
X143447619Y-91828333D02*
X143447619Y-92018809D01*
X143400000Y-92114047D01*
X143352380Y-92161666D01*
X143209523Y-92256904D01*
X143019047Y-92304523D01*
X142638095Y-92304523D01*
X142542857Y-92256904D01*
X142495238Y-92209285D01*
X142447619Y-92114047D01*
X142447619Y-91923571D01*
X142495238Y-91828333D01*
X142542857Y-91780714D01*
X142638095Y-91733095D01*
X142876190Y-91733095D01*
X142971428Y-91780714D01*
X143019047Y-91828333D01*
X143066666Y-91923571D01*
X143066666Y-92114047D01*
X143019047Y-92209285D01*
X142971428Y-92256904D01*
X142876190Y-92304523D01*
X142828571Y-91304523D02*
X142828571Y-90542619D01*
X143447619Y-89590238D02*
X143447619Y-90066428D01*
X142971428Y-90114047D01*
X143019047Y-90066428D01*
X143066666Y-89971190D01*
X143066666Y-89733095D01*
X143019047Y-89637857D01*
X142971428Y-89590238D01*
X142876190Y-89542619D01*
X142638095Y-89542619D01*
X142542857Y-89590238D01*
X142495238Y-89637857D01*
X142447619Y-89733095D01*
X142447619Y-89971190D01*
X142495238Y-90066428D01*
X142542857Y-90114047D01*
X143447619Y-89256904D02*
X142447619Y-88923571D01*
X143447619Y-88590238D01*
X134397619Y-91733095D02*
X134397619Y-92304523D01*
X134397619Y-92018809D02*
X135397619Y-92018809D01*
X135254761Y-92114047D01*
X135159523Y-92209285D01*
X135111904Y-92304523D01*
X134778571Y-91304523D02*
X134778571Y-90542619D01*
X135350000Y-89542619D02*
X135397619Y-89637857D01*
X135397619Y-89780714D01*
X135350000Y-89923571D01*
X135254761Y-90018809D01*
X135159523Y-90066428D01*
X134969047Y-90114047D01*
X134826190Y-90114047D01*
X134635714Y-90066428D01*
X134540476Y-90018809D01*
X134445238Y-89923571D01*
X134397619Y-89780714D01*
X134397619Y-89685476D01*
X134445238Y-89542619D01*
X134492857Y-89495000D01*
X134826190Y-89495000D01*
X134826190Y-89685476D01*
X134397619Y-89066428D02*
X135397619Y-89066428D01*
X134397619Y-88495000D01*
X135397619Y-88495000D01*
X134397619Y-88018809D02*
X135397619Y-88018809D01*
X135397619Y-87780714D01*
X135350000Y-87637857D01*
X135254761Y-87542619D01*
X135159523Y-87495000D01*
X134969047Y-87447380D01*
X134826190Y-87447380D01*
X134635714Y-87495000D01*
X134540476Y-87542619D01*
X134445238Y-87637857D01*
X134397619Y-87780714D01*
X134397619Y-88018809D01*
D10*
%TO.C,U1*%
X134261904Y-84452380D02*
X134261904Y-85261904D01*
X134214285Y-85357142D01*
X134166666Y-85404761D01*
X134071428Y-85452380D01*
X133880952Y-85452380D01*
X133785714Y-85404761D01*
X133738095Y-85357142D01*
X133690476Y-85261904D01*
X133690476Y-84452380D01*
X132690476Y-85452380D02*
X133261904Y-85452380D01*
X132976190Y-85452380D02*
X132976190Y-84452380D01*
X133071428Y-84595238D01*
X133166666Y-84690476D01*
X133261904Y-84738095D01*
D12*
X138500000Y-80390000D02*
X136300000Y-80390000D01*
X138500000Y-80390000D02*
X140700000Y-80390000D01*
X138500000Y-85610000D02*
X140700000Y-85610000D01*
X138500000Y-85610000D02*
X134900000Y-85610000D01*
%TD*%
M02*
